<?xml version='1.0' encoding='utf-8'?>
<svg height="371.30mm" viewBox="0.0 0.0 327.90 371.30" width="327.90mm" xmlns="http://www.w3.org/2000/svg" xmlns:cc="http://creativecommons.org/ns#" xmlns:dc="http://purl.org/dc/elements/1.1/" xmlns:inkscape="http://www.inkscape.org/namespaces/inkscape" xmlns:rdf="http://www.w3.org/1999/02/22-rdf-syntax-ns#" xmlns:svg="http://www.w3.org/2000/svg" xmlns:xlink="http://www.w3.org/1999/xlink">
<!--
BasedBox - Fully closed box on a base


This box is more of a building block than a finished item.
Use a vector graphics program (like Inkscape) to add holes or adjust the base
plate. The width of the "brim" can also be adjusted with the **edge_width**
 parameter in the **Finger Joints Settings**.

See ClosedBox for variant without a base.



Created with Boxes.py (https://boxes.hackerspace-bamberg.de/)
Creation date: 2026-05-04 07:29:50
Command line (remove spaces between dashes): boxes BasedBox - -x=150 - -y=150 - -h=90 - -spacing=0.5
Url: https://boxes.hackerspace-bamberg.de/BasedBox?FingerJoint_style=rectangular&FingerJoint_surroundingspaces=2.0&FingerJoint_bottom_lip=0.0&FingerJoint_edge_width=1.0&FingerJoint_extra_length=0.0&FingerJoint_finger=2.0&FingerJoint_play=0.0&FingerJoint_space=2.0&FingerJoint_width=1.0&x=150&y=150&h=90&outside=0&outside=1&thickness=3.0&burn=0.1&format=svg&labels=0&labels=1&reference=100.0&tabs=0.0&qr_code=0&inner_corners=loop&spacing=0.5&debug=0&language=zh_CN&render=2
Url short: https://boxes.hackerspace-bamberg.de/BasedBox?x=150&y=150&h=90&spacing=0.5
SettingsUrl: https://boxes.hackerspace-bamberg.de/BasedBox?FingerJoint_style=rectangular&FingerJoint_surroundingspaces=2.0&FingerJoint_bottom_lip=0.0&FingerJoint_edge_width=1.0&FingerJoint_extra_length=0.0&FingerJoint_finger=2.0&FingerJoint_play=0.0&FingerJoint_space=2.0&FingerJoint_width=1.0&x=150&y=150&h=90&outside=0&outside=1&thickness=3.0&burn=0.1&format=svg&labels=0&labels=1&reference=100.0&tabs=0.0&qr_code=0&inner_corners=loop&spacing=0.5&debug=0&language=zh_CN&render=2
SettingsUrl short: https://boxes.hackerspace-bamberg.de/BasedBox?x=150&y=150&h=90&spacing=0.5
-->
<title>BasedBox</title>
<metadata>
<rdf:RDF><cc:Work>
<dc:title>Box - BasedBox</dc:title>
<dc:date>2026-05-04 07:29:50</dc:date>
<dc:source>https://boxes.hackerspace-bamberg.de/BasedBox?FingerJoint_style=rectangular&amp;FingerJoint_surroundingspaces=2.0&amp;FingerJoint_bottom_lip=0.0&amp;FingerJoint_edge_width=1.0&amp;FingerJoint_extra_length=0.0&amp;FingerJoint_finger=2.0&amp;FingerJoint_play=0.0&amp;FingerJoint_space=2.0&amp;FingerJoint_width=1.0&amp;x=150&amp;y=150&amp;h=90&amp;outside=0&amp;outside=1&amp;thickness=3.0&amp;burn=0.1&amp;format=svg&amp;labels=0&amp;labels=1&amp;reference=100.0&amp;tabs=0.0&amp;qr_code=0&amp;inner_corners=loop&amp;spacing=0.5&amp;debug=0&amp;language=zh_CN&amp;render=2</dc:source>
<dc:source>https://boxes.hackerspace-bamberg.de/BasedBox?x=150&amp;y=150&amp;h=90&amp;spacing=0.5</dc:source>
<dc:description>Fully closed box on a base

This box is more of a building block than a finished item.
Use a vector graphics program (like Inkscape) to add holes or adjust the base
plate. The width of the "brim" can also be adjusted with the **edge_width**
 parameter in the **Finger Joints Settings**.

See ClosedBox for variant without a base.


Created with Boxes.py (https://boxes.hackerspace-bamberg.de/)
Command line: boxes BasedBox --FingerJoint_style=rectangular --FingerJoint_surroundingspaces=2.0 --FingerJoint_bottom_lip=0.0 --FingerJoint_edge_width=1.0 --FingerJoint_extra_length=0.0 --FingerJoint_finger=2.0 --FingerJoint_play=0.0 --FingerJoint_space=2.0 --FingerJoint_width=1.0 --x=150 --y=150 --h=90 --outside=0 --outside=1 --thickness=3.0 --burn=0.1 --format=svg --labels=0 --labels=1 --reference=100.0 --tabs=0.0 --qr_code=0 --inner_corners=loop --spacing=0.5 --debug=0
Command line short: boxes BasedBox --x=150 --y=150 --h=90 --spacing=0.5
Url: https://boxes.hackerspace-bamberg.de/BasedBox?FingerJoint_style=rectangular&amp;FingerJoint_surroundingspaces=2.0&amp;FingerJoint_bottom_lip=0.0&amp;FingerJoint_edge_width=1.0&amp;FingerJoint_extra_length=0.0&amp;FingerJoint_finger=2.0&amp;FingerJoint_play=0.0&amp;FingerJoint_space=2.0&amp;FingerJoint_width=1.0&amp;x=150&amp;y=150&amp;h=90&amp;outside=0&amp;outside=1&amp;thickness=3.0&amp;burn=0.1&amp;format=svg&amp;labels=0&amp;labels=1&amp;reference=100.0&amp;tabs=0.0&amp;qr_code=0&amp;inner_corners=loop&amp;spacing=0.5&amp;debug=0&amp;language=zh_CN&amp;render=2
Url short: https://boxes.hackerspace-bamberg.de/BasedBox?x=150&amp;y=150&amp;h=90&amp;spacing=0.5
SettingsUrl: https://boxes.hackerspace-bamberg.de/BasedBox?FingerJoint_style=rectangular&amp;FingerJoint_surroundingspaces=2.0&amp;FingerJoint_bottom_lip=0.0&amp;FingerJoint_edge_width=1.0&amp;FingerJoint_extra_length=0.0&amp;FingerJoint_finger=2.0&amp;FingerJoint_play=0.0&amp;FingerJoint_space=2.0&amp;FingerJoint_width=1.0&amp;x=150&amp;y=150&amp;h=90&amp;outside=0&amp;outside=1&amp;thickness=3.0&amp;burn=0.1&amp;format=svg&amp;labels=0&amp;labels=1&amp;reference=100.0&amp;tabs=0.0&amp;qr_code=0&amp;inner_corners=loop&amp;spacing=0.5&amp;debug=0&amp;language=zh_CN&amp;render=2
SettingsUrl short: https://boxes.hackerspace-bamberg.de/BasedBox?x=150&amp;y=150&amp;h=90&amp;spacing=0.5
</dc:description>
</cc:Work></rdf:RDF></metadata>
<g id="p-0" style="fill:none;stroke-linecap:round;stroke-linejoin:round;">
  <path d="M 10.100 361.300 H 110.100 V 351.300 H 10.100 V 361.300 Z" stroke="rgb(0,0,0)" stroke-width="0.20" />
  <text dominant-baseline="hanging" font-size="6px" style="font-family: sans-serif ; font-weight: normal; font-style: normal; fill: rgb(255,0,0)" text-anchor="middle" transform="matrix( 1.000 0.000 0.000 1.000 60.100 353.300 )">100.0mm, burn:0.10mm</text>
</g>
<g id="p-1" style="fill:none;stroke-linecap:round;stroke-linejoin:round;">
  <path d="M 13.100 346.600 H 22.000 C 22.100 346.600 22.000 346.500 22.000 346.600 V 349.500 C 22.000 349.555 22.045 349.600 22.100 349.600 H 28.100 C 28.155 349.600 28.200 349.555 28.200 349.500 V 346.600 C 28.200 346.500 28.100 346.600 28.200 346.600 H 34.000 C 34.100 346.600 34.000 346.500 34.000 346.600 V 349.500 C 34.000 349.555 34.045 349.600 34.100 349.600 H 40.100 C 40.155 349.600 40.200 349.555 40.200 349.500 V 346.600 C 40.200 346.500 40.100 346.600 40.200 346.600 H 46.000 C 46.100 346.600 46.000 346.500 46.000 346.600 V 349.500 C 46.000 349.555 46.045 349.600 46.100 349.600 H 52.100 C 52.155 349.600 52.200 349.555 52.200 349.500 V 346.600 C 52.200 346.500 52.100 346.600 52.200 346.600 H 58.000 C 58.100 346.600 58.000 346.500 58.000 346.600 V 349.500 C 58.000 349.555 58.045 349.600 58.100 349.600 H 64.100 C 64.155 349.600 64.200 349.555 64.200 349.500 V 346.600 C 64.200 346.500 64.100 346.600 64.200 346.600 H 70.000 C 70.100 346.600 70.000 346.500 70.000 346.600 V 349.500 C 70.000 349.555 70.045 349.600 70.100 349.600 H 76.100 C 76.155 349.600 76.200 349.555 76.200 349.500 V 346.600 C 76.200 346.500 76.100 346.600 76.200 346.600 H 82.000 C 82.100 346.600 82.000 346.500 82.000 346.600 V 349.500 C 82.000 349.555 82.045 349.600 82.100 349.600 H 88.100 C 88.155 349.600 88.200 349.555 88.200 349.500 V 346.600 C 88.200 346.500 88.100 346.600 88.200 346.600 H 94.000 C 94.100 346.600 94.000 346.500 94.000 346.600 V 349.500 C 94.000 349.555 94.045 349.600 94.100 349.600 H 100.100 C 100.155 349.600 100.200 349.555 100.200 349.500 V 346.600 C 100.200 346.500 100.100 346.600 100.200 346.600 H 106.000 C 106.100 346.600 106.000 346.500 106.000 346.600 V 349.500 C 106.000 349.555 106.045 349.600 106.100 349.600 H 112.100 C 112.155 349.600 112.200 349.555 112.200 349.500 V 346.600 C 112.200 346.500 112.100 346.600 112.200 346.600 H 118.000 C 118.100 346.600 118.000 346.500 118.000 346.600 V 349.500 C 118.000 349.555 118.045 349.600 118.100 349.600 H 124.100 C 124.155 349.600 124.200 349.555 124.200 349.500 V 346.600 C 124.200 346.500 124.100 346.600 124.200 346.600 H 130.000 C 130.100 346.600 130.000 346.500 130.000 346.600 V 349.500 C 130.000 349.555 130.045 349.600 130.100 349.600 H 136.100 C 136.155 349.600 136.200 349.555 136.200 349.500 V 346.600 C 136.200 346.500 136.100 346.600 136.200 346.600 H 142.000 C 142.100 346.600 142.000 346.500 142.000 346.600 V 349.500 C 142.000 349.555 142.045 349.600 142.100 349.600 H 148.100 C 148.155 349.600 148.200 349.555 148.200 349.500 V 346.600 C 148.200 346.500 148.100 346.600 148.200 346.600 H 157.100 H 160.100 C 160.155 346.600 160.200 346.555 160.200 346.500 V 337.500 C 160.200 337.445 160.155 337.400 160.100 337.400 H 157.200 C 157.100 337.400 157.200 337.500 157.200 337.400 V 331.600 C 157.200 331.500 157.100 331.600 157.200 331.600 H 160.100 C 160.155 331.600 160.200 331.555 160.200 331.500 V 325.500 C 160.200 325.445 160.155 325.400 160.100 325.400 H 157.200 C 157.100 325.400 157.200 325.500 157.200 325.400 V 319.600 C 157.200 319.500 157.100 319.600 157.200 319.600 H 160.100 C 160.155 319.600 160.200 319.555 160.200 319.500 V 313.500 C 160.200 313.445 160.155 313.400 160.100 313.400 H 157.200 C 157.100 313.400 157.200 313.500 157.200 313.400 V 307.600 C 157.200 307.500 157.100 307.600 157.200 307.600 H 160.100 C 160.155 307.600 160.200 307.555 160.200 307.500 V 301.500 C 160.200 301.445 160.155 301.400 160.100 301.400 H 157.200 C 157.100 301.400 157.200 301.500 157.200 301.400 V 295.600 C 157.200 295.500 157.100 295.600 157.200 295.600 H 160.100 C 160.155 295.600 160.200 295.555 160.200 295.500 V 289.500 C 160.200 289.445 160.155 289.400 160.100 289.400 H 157.200 C 157.100 289.400 157.200 289.500 157.200 289.400 V 283.600 C 157.200 283.500 157.100 283.600 157.200 283.600 H 160.100 C 160.155 283.600 160.200 283.555 160.200 283.500 V 277.500 C 160.200 277.445 160.155 277.400 160.100 277.400 H 157.200 C 157.100 277.400 157.200 277.500 157.200 277.400 V 271.600 C 157.200 271.500 157.100 271.600 157.200 271.600 H 160.100 C 160.155 271.600 160.200 271.555 160.200 271.500 V 262.500 V 259.500 C 160.200 259.445 160.155 259.400 160.100 259.400 H 157.100 H 148.100 C 148.045 259.400 148.000 259.445 148.000 259.500 V 262.400 C 148.000 262.500 148.100 262.400 148.000 262.400 H 142.200 C 142.100 262.400 142.200 262.500 142.200 262.400 V 259.500 C 142.200 259.445 142.155 259.400 142.100 259.400 H 136.100 C 136.045 259.400 136.000 259.445 136.000 259.500 V 262.400 C 136.000 262.500 136.100 262.400 136.000 262.400 H 130.200 C 130.100 262.400 130.200 262.500 130.200 262.400 V 259.500 C 130.200 259.445 130.155 259.400 130.100 259.400 H 124.100 C 124.045 259.400 124.000 259.445 124.000 259.500 V 262.400 C 124.000 262.500 124.100 262.400 124.000 262.400 H 118.200 C 118.100 262.400 118.200 262.500 118.200 262.400 V 259.500 C 118.200 259.445 118.155 259.400 118.100 259.400 H 112.100 C 112.045 259.400 112.000 259.445 112.000 259.500 V 262.400 C 112.000 262.500 112.100 262.400 112.000 262.400 H 106.200 C 106.100 262.400 106.200 262.500 106.200 262.400 V 259.500 C 106.200 259.445 106.155 259.400 106.100 259.400 H 100.100 C 100.045 259.400 100.000 259.445 100.000 259.500 V 262.400 C 100.000 262.500 100.100 262.400 100.000 262.400 H 94.200 C 94.100 262.400 94.200 262.500 94.200 262.400 V 259.500 C 94.200 259.445 94.155 259.400 94.100 259.400 H 88.100 C 88.045 259.400 88.000 259.445 88.000 259.500 V 262.400 C 88.000 262.500 88.100 262.400 88.000 262.400 H 82.200 C 82.100 262.400 82.200 262.500 82.200 262.400 V 259.500 C 82.200 259.445 82.155 259.400 82.100 259.400 H 76.100 C 76.045 259.400 76.000 259.445 76.000 259.500 V 262.400 C 76.000 262.500 76.100 262.400 76.000 262.400 H 70.200 C 70.100 262.400 70.200 262.500 70.200 262.400 V 259.500 C 70.200 259.445 70.155 259.400 70.100 259.400 H 64.100 C 64.045 259.400 64.000 259.445 64.000 259.500 V 262.400 C 64.000 262.500 64.100 262.400 64.000 262.400 H 58.200 C 58.100 262.400 58.200 262.500 58.200 262.400 V 259.500 C 58.200 259.445 58.155 259.400 58.100 259.400 H 52.100 C 52.045 259.400 52.000 259.445 52.000 259.500 V 262.400 C 52.000 262.500 52.100 262.400 52.000 262.400 H 46.200 C 46.100 262.400 46.200 262.500 46.200 262.400 V 259.500 C 46.200 259.445 46.155 259.400 46.100 259.400 H 40.100 C 40.045 259.400 40.000 259.445 40.000 259.500 V 262.400 C 40.000 262.500 40.100 262.400 40.000 262.400 H 34.200 C 34.100 262.400 34.200 262.500 34.200 262.400 V 259.500 C 34.200 259.445 34.155 259.400 34.100 259.400 H 28.100 C 28.045 259.400 28.000 259.445 28.000 259.500 V 262.400 C 28.000 262.500 28.100 262.400 28.000 262.400 H 22.200 C 22.100 262.400 22.200 262.500 22.200 262.400 V 259.500 C 22.200 259.445 22.155 259.400 22.100 259.400 H 13.100 H 10.100 C 10.045 259.400 10.000 259.445 10.000 259.500 V 262.500 V 271.500 C 10.000 271.555 10.045 271.600 10.100 271.600 H 13.000 C 13.100 271.600 13.000 271.500 13.000 271.600 V 277.400 C 13.000 277.500 13.100 277.400 13.000 277.400 H 10.100 C 10.045 277.400 10.000 277.445 10.000 277.500 V 283.500 C 10.000 283.555 10.045 283.600 10.100 283.600 H 13.000 C 13.100 283.600 13.000 283.500 13.000 283.600 V 289.400 C 13.000 289.500 13.100 289.400 13.000 289.400 H 10.100 C 10.045 289.400 10.000 289.445 10.000 289.500 V 295.500 C 10.000 295.555 10.045 295.600 10.100 295.600 H 13.000 C 13.100 295.600 13.000 295.500 13.000 295.600 V 301.400 C 13.000 301.500 13.100 301.400 13.000 301.400 H 10.100 C 10.045 301.400 10.000 301.445 10.000 301.500 V 307.500 C 10.000 307.555 10.045 307.600 10.100 307.600 H 13.000 C 13.100 307.600 13.000 307.500 13.000 307.600 V 313.400 C 13.000 313.500 13.100 313.400 13.000 313.400 H 10.100 C 10.045 313.400 10.000 313.445 10.000 313.500 V 319.500 C 10.000 319.555 10.045 319.600 10.100 319.600 H 13.000 C 13.100 319.600 13.000 319.500 13.000 319.600 V 325.400 C 13.000 325.500 13.100 325.400 13.000 325.400 H 10.100 C 10.045 325.400 10.000 325.445 10.000 325.500 V 331.500 C 10.000 331.555 10.045 331.600 10.100 331.600 H 13.000 C 13.100 331.600 13.000 331.500 13.000 331.600 V 337.400 C 13.000 337.500 13.100 337.400 13.000 337.400 H 10.100 C 10.045 337.400 10.000 337.445 10.000 337.500 V 346.500 C 10.000 346.555 10.045 346.600 10.100 346.600 H 13.100 Z" stroke="rgb(0,0,0)" stroke-width="0.20" />
  <text dominant-baseline="hanging" font-size="4px" style="font-family: sans-serif ; font-weight: normal; font-style: normal; fill: rgb(255,0,0)" text-anchor="middle" transform="matrix( 1.000 0.000 0.000 1.000 85.100 302.600 )">Wall 1</text>
</g>
<g id="p-2" style="fill:none;stroke-linecap:round;stroke-linejoin:round;">
  <path d="M 164.800 346.600 H 173.700 C 173.800 346.600 173.700 346.500 173.700 346.600 V 349.500 C 173.700 349.555 173.745 349.600 173.800 349.600 H 179.800 C 179.855 349.600 179.900 349.555 179.900 349.500 V 346.600 C 179.900 346.500 179.800 346.600 179.900 346.600 H 185.700 C 185.800 346.600 185.700 346.500 185.700 346.600 V 349.500 C 185.700 349.555 185.745 349.600 185.800 349.600 H 191.800 C 191.855 349.600 191.900 349.555 191.900 349.500 V 346.600 C 191.900 346.500 191.800 346.600 191.900 346.600 H 197.700 C 197.800 346.600 197.700 346.500 197.700 346.600 V 349.500 C 197.700 349.555 197.745 349.600 197.800 349.600 H 203.800 C 203.855 349.600 203.900 349.555 203.900 349.500 V 346.600 C 203.900 346.500 203.800 346.600 203.900 346.600 H 209.700 C 209.800 346.600 209.700 346.500 209.700 346.600 V 349.500 C 209.700 349.555 209.745 349.600 209.800 349.600 H 215.800 C 215.855 349.600 215.900 349.555 215.900 349.500 V 346.600 C 215.900 346.500 215.800 346.600 215.900 346.600 H 221.700 C 221.800 346.600 221.700 346.500 221.700 346.600 V 349.500 C 221.700 349.555 221.745 349.600 221.800 349.600 H 227.800 C 227.855 349.600 227.900 349.555 227.900 349.500 V 346.600 C 227.900 346.500 227.800 346.600 227.900 346.600 H 233.700 C 233.800 346.600 233.700 346.500 233.700 346.600 V 349.500 C 233.700 349.555 233.745 349.600 233.800 349.600 H 239.800 C 239.855 349.600 239.900 349.555 239.900 349.500 V 346.600 C 239.900 346.500 239.800 346.600 239.900 346.600 H 245.700 C 245.800 346.600 245.700 346.500 245.700 346.600 V 349.500 C 245.700 349.555 245.745 349.600 245.800 349.600 H 251.800 C 251.855 349.600 251.900 349.555 251.900 349.500 V 346.600 C 251.900 346.500 251.800 346.600 251.900 346.600 H 257.700 C 257.800 346.600 257.700 346.500 257.700 346.600 V 349.500 C 257.700 349.555 257.745 349.600 257.800 349.600 H 263.800 C 263.855 349.600 263.900 349.555 263.900 349.500 V 346.600 C 263.900 346.500 263.800 346.600 263.900 346.600 H 269.700 C 269.800 346.600 269.700 346.500 269.700 346.600 V 349.500 C 269.700 349.555 269.745 349.600 269.800 349.600 H 275.800 C 275.855 349.600 275.900 349.555 275.900 349.500 V 346.600 C 275.900 346.500 275.800 346.600 275.900 346.600 H 281.700 C 281.800 346.600 281.700 346.500 281.700 346.600 V 349.500 C 281.700 349.555 281.745 349.600 281.800 349.600 H 287.800 C 287.855 349.600 287.900 349.555 287.900 349.500 V 346.600 C 287.900 346.500 287.800 346.600 287.900 346.600 H 293.700 C 293.800 346.600 293.700 346.500 293.700 346.600 V 349.500 C 293.700 349.555 293.745 349.600 293.800 349.600 H 299.800 C 299.855 349.600 299.900 349.555 299.900 349.500 V 346.600 C 299.900 346.500 299.800 346.600 299.900 346.600 H 308.800 C 308.855 346.600 308.900 346.555 308.900 346.500 V 337.600 C 308.900 337.500 308.800 337.600 308.900 337.600 H 311.800 C 311.855 337.600 311.900 337.555 311.900 337.500 V 331.500 C 311.900 331.445 311.855 331.400 311.800 331.400 H 308.900 C 308.800 331.400 308.900 331.500 308.900 331.400 V 325.600 C 308.900 325.500 308.800 325.600 308.900 325.600 H 311.800 C 311.855 325.600 311.900 325.555 311.900 325.500 V 319.500 C 311.900 319.445 311.855 319.400 311.800 319.400 H 308.900 C 308.800 319.400 308.900 319.500 308.900 319.400 V 313.600 C 308.900 313.500 308.800 313.600 308.900 313.600 H 311.800 C 311.855 313.600 311.900 313.555 311.900 313.500 V 307.500 C 311.900 307.445 311.855 307.400 311.800 307.400 H 308.900 C 308.800 307.400 308.900 307.500 308.900 307.400 V 301.600 C 308.900 301.500 308.800 301.600 308.900 301.600 H 311.800 C 311.855 301.600 311.900 301.555 311.900 301.500 V 295.500 C 311.900 295.445 311.855 295.400 311.800 295.400 H 308.900 C 308.800 295.400 308.900 295.500 308.900 295.400 V 289.600 C 308.900 289.500 308.800 289.600 308.900 289.600 H 311.800 C 311.855 289.600 311.900 289.555 311.900 289.500 V 283.500 C 311.900 283.445 311.855 283.400 311.800 283.400 H 308.900 C 308.800 283.400 308.900 283.500 308.900 283.400 V 277.600 C 308.900 277.500 308.800 277.600 308.900 277.600 H 311.800 C 311.855 277.600 311.900 277.555 311.900 277.500 V 271.500 C 311.900 271.445 311.855 271.400 311.800 271.400 H 308.900 C 308.800 271.400 308.900 271.500 308.900 271.400 V 262.500 V 259.500 C 308.900 259.445 308.855 259.400 308.800 259.400 H 299.800 C 299.745 259.400 299.700 259.445 299.700 259.500 V 262.400 C 299.700 262.500 299.800 262.400 299.700 262.400 H 293.900 C 293.800 262.400 293.900 262.500 293.900 262.400 V 259.500 C 293.900 259.445 293.855 259.400 293.800 259.400 H 287.800 C 287.745 259.400 287.700 259.445 287.700 259.500 V 262.400 C 287.700 262.500 287.800 262.400 287.700 262.400 H 281.900 C 281.800 262.400 281.900 262.500 281.900 262.400 V 259.500 C 281.900 259.445 281.855 259.400 281.800 259.400 H 275.800 C 275.745 259.400 275.700 259.445 275.700 259.500 V 262.400 C 275.700 262.500 275.800 262.400 275.700 262.400 H 269.900 C 269.800 262.400 269.900 262.500 269.900 262.400 V 259.500 C 269.900 259.445 269.855 259.400 269.800 259.400 H 263.800 C 263.745 259.400 263.700 259.445 263.700 259.500 V 262.400 C 263.700 262.500 263.800 262.400 263.700 262.400 H 257.900 C 257.800 262.400 257.900 262.500 257.900 262.400 V 259.500 C 257.900 259.445 257.855 259.400 257.800 259.400 H 251.800 C 251.745 259.400 251.700 259.445 251.700 259.500 V 262.400 C 251.700 262.500 251.800 262.400 251.700 262.400 H 245.900 C 245.800 262.400 245.900 262.500 245.900 262.400 V 259.500 C 245.900 259.445 245.855 259.400 245.800 259.400 H 239.800 C 239.745 259.400 239.700 259.445 239.700 259.500 V 262.400 C 239.700 262.500 239.800 262.400 239.700 262.400 H 233.900 C 233.800 262.400 233.900 262.500 233.900 262.400 V 259.500 C 233.900 259.445 233.855 259.400 233.800 259.400 H 227.800 C 227.745 259.400 227.700 259.445 227.700 259.500 V 262.400 C 227.700 262.500 227.800 262.400 227.700 262.400 H 221.900 C 221.800 262.400 221.900 262.500 221.900 262.400 V 259.500 C 221.900 259.445 221.855 259.400 221.800 259.400 H 215.800 C 215.745 259.400 215.700 259.445 215.700 259.500 V 262.400 C 215.700 262.500 215.800 262.400 215.700 262.400 H 209.900 C 209.800 262.400 209.900 262.500 209.900 262.400 V 259.500 C 209.900 259.445 209.855 259.400 209.800 259.400 H 203.800 C 203.745 259.400 203.700 259.445 203.700 259.500 V 262.400 C 203.700 262.500 203.800 262.400 203.700 262.400 H 197.900 C 197.800 262.400 197.900 262.500 197.900 262.400 V 259.500 C 197.900 259.445 197.855 259.400 197.800 259.400 H 191.800 C 191.745 259.400 191.700 259.445 191.700 259.500 V 262.400 C 191.700 262.500 191.800 262.400 191.700 262.400 H 185.900 C 185.800 262.400 185.900 262.500 185.900 262.400 V 259.500 C 185.900 259.445 185.855 259.400 185.800 259.400 H 179.800 C 179.745 259.400 179.700 259.445 179.700 259.500 V 262.400 C 179.700 262.500 179.800 262.400 179.700 262.400 H 173.900 C 173.800 262.400 173.900 262.500 173.900 262.400 V 259.500 C 173.900 259.445 173.855 259.400 173.800 259.400 H 164.800 C 164.745 259.400 164.700 259.445 164.700 259.500 V 262.500 V 271.400 C 164.700 271.500 164.800 271.400 164.700 271.400 H 161.800 C 161.745 271.400 161.700 271.445 161.700 271.500 V 277.500 C 161.700 277.555 161.745 277.600 161.800 277.600 H 164.700 C 164.800 277.600 164.700 277.500 164.700 277.600 V 283.400 C 164.700 283.500 164.800 283.400 164.700 283.400 H 161.800 C 161.745 283.400 161.700 283.445 161.700 283.500 V 289.500 C 161.700 289.555 161.745 289.600 161.800 289.600 H 164.700 C 164.800 289.600 164.700 289.500 164.700 289.600 V 295.400 C 164.700 295.500 164.800 295.400 164.700 295.400 H 161.800 C 161.745 295.400 161.700 295.445 161.700 295.500 V 301.500 C 161.700 301.555 161.745 301.600 161.800 301.600 H 164.700 C 164.800 301.600 164.700 301.500 164.700 301.600 V 307.400 C 164.700 307.500 164.800 307.400 164.700 307.400 H 161.800 C 161.745 307.400 161.700 307.445 161.700 307.500 V 313.500 C 161.700 313.555 161.745 313.600 161.800 313.600 H 164.700 C 164.800 313.600 164.700 313.500 164.700 313.600 V 319.400 C 164.700 319.500 164.800 319.400 164.700 319.400 H 161.800 C 161.745 319.400 161.700 319.445 161.700 319.500 V 325.500 C 161.700 325.555 161.745 325.600 161.800 325.600 H 164.700 C 164.800 325.600 164.700 325.500 164.700 325.600 V 331.400 C 164.700 331.500 164.800 331.400 164.700 331.400 H 161.800 C 161.745 331.400 161.700 331.445 161.700 331.500 V 337.500 C 161.700 337.555 161.745 337.600 161.800 337.600 H 164.700 C 164.800 337.600 164.700 337.500 164.700 337.600 V 346.500 C 164.700 346.555 164.745 346.600 164.800 346.600 Z" stroke="rgb(0,0,0)" stroke-width="0.20" />
  <text dominant-baseline="hanging" font-size="4px" style="font-family: sans-serif ; font-weight: normal; font-style: normal; fill: rgb(255,0,0)" text-anchor="middle" transform="matrix( 1.000 0.000 0.000 1.000 236.800 302.600 )">Wall 2</text>
</g>
<g id="p-3" style="fill:none;stroke-linecap:round;stroke-linejoin:round;">
  <path d="M 164.800 254.900 H 173.700 C 173.800 254.900 173.700 254.800 173.700 254.900 V 257.800 C 173.700 257.855 173.745 257.900 173.800 257.900 H 179.800 C 179.855 257.900 179.900 257.855 179.900 257.800 V 254.900 C 179.900 254.800 179.800 254.900 179.900 254.900 H 185.700 C 185.800 254.900 185.700 254.800 185.700 254.900 V 257.800 C 185.700 257.855 185.745 257.900 185.800 257.900 H 191.800 C 191.855 257.900 191.900 257.855 191.900 257.800 V 254.900 C 191.900 254.800 191.800 254.900 191.900 254.900 H 197.700 C 197.800 254.900 197.700 254.800 197.700 254.900 V 257.800 C 197.700 257.855 197.745 257.900 197.800 257.900 H 203.800 C 203.855 257.900 203.900 257.855 203.900 257.800 V 254.900 C 203.900 254.800 203.800 254.900 203.900 254.900 H 209.700 C 209.800 254.900 209.700 254.800 209.700 254.900 V 257.800 C 209.700 257.855 209.745 257.900 209.800 257.900 H 215.800 C 215.855 257.900 215.900 257.855 215.900 257.800 V 254.900 C 215.900 254.800 215.800 254.900 215.900 254.900 H 221.700 C 221.800 254.900 221.700 254.800 221.700 254.900 V 257.800 C 221.700 257.855 221.745 257.900 221.800 257.900 H 227.800 C 227.855 257.900 227.900 257.855 227.900 257.800 V 254.900 C 227.900 254.800 227.800 254.900 227.900 254.900 H 233.700 C 233.800 254.900 233.700 254.800 233.700 254.900 V 257.800 C 233.700 257.855 233.745 257.900 233.800 257.900 H 239.800 C 239.855 257.900 239.900 257.855 239.900 257.800 V 254.900 C 239.900 254.800 239.800 254.900 239.900 254.900 H 245.700 C 245.800 254.900 245.700 254.800 245.700 254.900 V 257.800 C 245.700 257.855 245.745 257.900 245.800 257.900 H 251.800 C 251.855 257.900 251.900 257.855 251.900 257.800 V 254.900 C 251.900 254.800 251.800 254.900 251.900 254.900 H 257.700 C 257.800 254.900 257.700 254.800 257.700 254.900 V 257.800 C 257.700 257.855 257.745 257.900 257.800 257.900 H 263.800 C 263.855 257.900 263.900 257.855 263.900 257.800 V 254.900 C 263.900 254.800 263.800 254.900 263.900 254.900 H 269.700 C 269.800 254.900 269.700 254.800 269.700 254.900 V 257.800 C 269.700 257.855 269.745 257.900 269.800 257.900 H 275.800 C 275.855 257.900 275.900 257.855 275.900 257.800 V 254.900 C 275.900 254.800 275.800 254.900 275.900 254.900 H 281.700 C 281.800 254.900 281.700 254.800 281.700 254.900 V 257.800 C 281.700 257.855 281.745 257.900 281.800 257.900 H 287.800 C 287.855 257.900 287.900 257.855 287.900 257.800 V 254.900 C 287.900 254.800 287.800 254.900 287.900 254.900 H 293.700 C 293.800 254.900 293.700 254.800 293.700 254.900 V 257.800 C 293.700 257.855 293.745 257.900 293.800 257.900 H 299.800 C 299.855 257.900 299.900 257.855 299.900 257.800 V 254.900 C 299.900 254.800 299.800 254.900 299.900 254.900 H 308.800 C 308.855 254.900 308.900 254.855 308.900 254.800 V 245.900 C 308.900 245.800 308.800 245.900 308.900 245.900 H 311.800 C 311.855 245.900 311.900 245.855 311.900 245.800 V 239.800 C 311.900 239.745 311.855 239.700 311.800 239.700 H 308.900 C 308.800 239.700 308.900 239.800 308.900 239.700 V 233.900 C 308.900 233.800 308.800 233.900 308.900 233.900 H 311.800 C 311.855 233.900 311.900 233.855 311.900 233.800 V 227.800 C 311.900 227.745 311.855 227.700 311.800 227.700 H 308.900 C 308.800 227.700 308.900 227.800 308.900 227.700 V 221.900 C 308.900 221.800 308.800 221.900 308.900 221.900 H 311.800 C 311.855 221.900 311.900 221.855 311.900 221.800 V 215.800 C 311.900 215.745 311.855 215.700 311.800 215.700 H 308.900 C 308.800 215.700 308.900 215.800 308.900 215.700 V 209.900 C 308.900 209.800 308.800 209.900 308.900 209.900 H 311.800 C 311.855 209.900 311.900 209.855 311.900 209.800 V 203.800 C 311.900 203.745 311.855 203.700 311.800 203.700 H 308.900 C 308.800 203.700 308.900 203.800 308.900 203.700 V 197.900 C 308.900 197.800 308.800 197.900 308.900 197.900 H 311.800 C 311.855 197.900 311.900 197.855 311.900 197.800 V 191.800 C 311.900 191.745 311.855 191.700 311.800 191.700 H 308.900 C 308.800 191.700 308.900 191.800 308.900 191.700 V 185.900 C 308.900 185.800 308.800 185.900 308.900 185.900 H 311.800 C 311.855 185.900 311.900 185.855 311.900 185.800 V 179.800 C 311.900 179.745 311.855 179.700 311.800 179.700 H 308.900 C 308.800 179.700 308.900 179.800 308.900 179.700 V 170.800 V 167.800 C 308.900 167.745 308.855 167.700 308.800 167.700 H 299.800 C 299.745 167.700 299.700 167.745 299.700 167.800 V 170.700 C 299.700 170.800 299.800 170.700 299.700 170.700 H 293.900 C 293.800 170.700 293.900 170.800 293.900 170.700 V 167.800 C 293.900 167.745 293.855 167.700 293.800 167.700 H 287.800 C 287.745 167.700 287.700 167.745 287.700 167.800 V 170.700 C 287.700 170.800 287.800 170.700 287.700 170.700 H 281.900 C 281.800 170.700 281.900 170.800 281.900 170.700 V 167.800 C 281.900 167.745 281.855 167.700 281.800 167.700 H 275.800 C 275.745 167.700 275.700 167.745 275.700 167.800 V 170.700 C 275.700 170.800 275.800 170.700 275.700 170.700 H 269.900 C 269.800 170.700 269.900 170.800 269.900 170.700 V 167.800 C 269.900 167.745 269.855 167.700 269.800 167.700 H 263.800 C 263.745 167.700 263.700 167.745 263.700 167.800 V 170.700 C 263.700 170.800 263.800 170.700 263.700 170.700 H 257.900 C 257.800 170.700 257.900 170.800 257.900 170.700 V 167.800 C 257.900 167.745 257.855 167.700 257.800 167.700 H 251.800 C 251.745 167.700 251.700 167.745 251.700 167.800 V 170.700 C 251.700 170.800 251.800 170.700 251.700 170.700 H 245.900 C 245.800 170.700 245.900 170.800 245.900 170.700 V 167.800 C 245.900 167.745 245.855 167.700 245.800 167.700 H 239.800 C 239.745 167.700 239.700 167.745 239.700 167.800 V 170.700 C 239.700 170.800 239.800 170.700 239.700 170.700 H 233.900 C 233.800 170.700 233.900 170.800 233.900 170.700 V 167.800 C 233.900 167.745 233.855 167.700 233.800 167.700 H 227.800 C 227.745 167.700 227.700 167.745 227.700 167.800 V 170.700 C 227.700 170.800 227.800 170.700 227.700 170.700 H 221.900 C 221.800 170.700 221.900 170.800 221.900 170.700 V 167.800 C 221.900 167.745 221.855 167.700 221.800 167.700 H 215.800 C 215.745 167.700 215.700 167.745 215.700 167.800 V 170.700 C 215.700 170.800 215.800 170.700 215.700 170.700 H 209.900 C 209.800 170.700 209.900 170.800 209.900 170.700 V 167.800 C 209.900 167.745 209.855 167.700 209.800 167.700 H 203.800 C 203.745 167.700 203.700 167.745 203.700 167.800 V 170.700 C 203.700 170.800 203.800 170.700 203.700 170.700 H 197.900 C 197.800 170.700 197.900 170.800 197.900 170.700 V 167.800 C 197.900 167.745 197.855 167.700 197.800 167.700 H 191.800 C 191.745 167.700 191.700 167.745 191.700 167.800 V 170.700 C 191.700 170.800 191.800 170.700 191.700 170.700 H 185.900 C 185.800 170.700 185.900 170.800 185.900 170.700 V 167.800 C 185.900 167.745 185.855 167.700 185.800 167.700 H 179.800 C 179.745 167.700 179.700 167.745 179.700 167.800 V 170.700 C 179.700 170.800 179.800 170.700 179.700 170.700 H 173.900 C 173.800 170.700 173.900 170.800 173.900 170.700 V 167.800 C 173.900 167.745 173.855 167.700 173.800 167.700 H 164.800 C 164.745 167.700 164.700 167.745 164.700 167.800 V 170.800 V 179.700 C 164.700 179.800 164.800 179.700 164.700 179.700 H 161.800 C 161.745 179.700 161.700 179.745 161.700 179.800 V 185.800 C 161.700 185.855 161.745 185.900 161.800 185.900 H 164.700 C 164.800 185.900 164.700 185.800 164.700 185.900 V 191.700 C 164.700 191.800 164.800 191.700 164.700 191.700 H 161.800 C 161.745 191.700 161.700 191.745 161.700 191.800 V 197.800 C 161.700 197.855 161.745 197.900 161.800 197.900 H 164.700 C 164.800 197.900 164.700 197.800 164.700 197.900 V 203.700 C 164.700 203.800 164.800 203.700 164.700 203.700 H 161.800 C 161.745 203.700 161.700 203.745 161.700 203.800 V 209.800 C 161.700 209.855 161.745 209.900 161.800 209.900 H 164.700 C 164.800 209.900 164.700 209.800 164.700 209.900 V 215.700 C 164.700 215.800 164.800 215.700 164.700 215.700 H 161.800 C 161.745 215.700 161.700 215.745 161.700 215.800 V 221.800 C 161.700 221.855 161.745 221.900 161.800 221.900 H 164.700 C 164.800 221.900 164.700 221.800 164.700 221.900 V 227.700 C 164.700 227.800 164.800 227.700 164.700 227.700 H 161.800 C 161.745 227.700 161.700 227.745 161.700 227.800 V 233.800 C 161.700 233.855 161.745 233.900 161.800 233.900 H 164.700 C 164.800 233.900 164.700 233.800 164.700 233.900 V 239.700 C 164.700 239.800 164.800 239.700 164.700 239.700 H 161.800 C 161.745 239.700 161.700 239.745 161.700 239.800 V 245.800 C 161.700 245.855 161.745 245.900 161.800 245.900 H 164.700 C 164.800 245.900 164.700 245.800 164.700 245.900 V 254.800 C 164.700 254.855 164.745 254.900 164.800 254.900 Z" stroke="rgb(0,0,0)" stroke-width="0.20" />
  <text dominant-baseline="hanging" font-size="4px" style="font-family: sans-serif ; font-weight: normal; font-style: normal; fill: rgb(255,0,0)" text-anchor="middle" transform="matrix( 1.000 0.000 0.000 1.000 236.800 210.900 )">Wall 4</text>
</g>
<g id="p-4" style="fill:none;stroke-linecap:round;stroke-linejoin:round;">
  <path d="M 13.100 254.900 H 22.000 C 22.100 254.900 22.000 254.800 22.000 254.900 V 257.800 C 22.000 257.855 22.045 257.900 22.100 257.900 H 28.100 C 28.155 257.900 28.200 257.855 28.200 257.800 V 254.900 C 28.200 254.800 28.100 254.900 28.200 254.900 H 34.000 C 34.100 254.900 34.000 254.800 34.000 254.900 V 257.800 C 34.000 257.855 34.045 257.900 34.100 257.900 H 40.100 C 40.155 257.900 40.200 257.855 40.200 257.800 V 254.900 C 40.200 254.800 40.100 254.900 40.200 254.900 H 46.000 C 46.100 254.900 46.000 254.800 46.000 254.900 V 257.800 C 46.000 257.855 46.045 257.900 46.100 257.900 H 52.100 C 52.155 257.900 52.200 257.855 52.200 257.800 V 254.900 C 52.200 254.800 52.100 254.900 52.200 254.900 H 58.000 C 58.100 254.900 58.000 254.800 58.000 254.900 V 257.800 C 58.000 257.855 58.045 257.900 58.100 257.900 H 64.100 C 64.155 257.900 64.200 257.855 64.200 257.800 V 254.900 C 64.200 254.800 64.100 254.900 64.200 254.900 H 70.000 C 70.100 254.900 70.000 254.800 70.000 254.900 V 257.800 C 70.000 257.855 70.045 257.900 70.100 257.900 H 76.100 C 76.155 257.900 76.200 257.855 76.200 257.800 V 254.900 C 76.200 254.800 76.100 254.900 76.200 254.900 H 82.000 C 82.100 254.900 82.000 254.800 82.000 254.900 V 257.800 C 82.000 257.855 82.045 257.900 82.100 257.900 H 88.100 C 88.155 257.900 88.200 257.855 88.200 257.800 V 254.900 C 88.200 254.800 88.100 254.900 88.200 254.900 H 94.000 C 94.100 254.900 94.000 254.800 94.000 254.900 V 257.800 C 94.000 257.855 94.045 257.900 94.100 257.900 H 100.100 C 100.155 257.900 100.200 257.855 100.200 257.800 V 254.900 C 100.200 254.800 100.100 254.900 100.200 254.900 H 106.000 C 106.100 254.900 106.000 254.800 106.000 254.900 V 257.800 C 106.000 257.855 106.045 257.900 106.100 257.900 H 112.100 C 112.155 257.900 112.200 257.855 112.200 257.800 V 254.900 C 112.200 254.800 112.100 254.900 112.200 254.900 H 118.000 C 118.100 254.900 118.000 254.800 118.000 254.900 V 257.800 C 118.000 257.855 118.045 257.900 118.100 257.900 H 124.100 C 124.155 257.900 124.200 257.855 124.200 257.800 V 254.900 C 124.200 254.800 124.100 254.900 124.200 254.900 H 130.000 C 130.100 254.900 130.000 254.800 130.000 254.900 V 257.800 C 130.000 257.855 130.045 257.900 130.100 257.900 H 136.100 C 136.155 257.900 136.200 257.855 136.200 257.800 V 254.900 C 136.200 254.800 136.100 254.900 136.200 254.900 H 142.000 C 142.100 254.900 142.000 254.800 142.000 254.900 V 257.800 C 142.000 257.855 142.045 257.900 142.100 257.900 H 148.100 C 148.155 257.900 148.200 257.855 148.200 257.800 V 254.900 C 148.200 254.800 148.100 254.900 148.200 254.900 H 157.100 H 160.100 C 160.155 254.900 160.200 254.855 160.200 254.800 V 245.800 C 160.200 245.745 160.155 245.700 160.100 245.700 H 157.200 C 157.100 245.700 157.200 245.800 157.200 245.700 V 239.900 C 157.200 239.800 157.100 239.900 157.200 239.900 H 160.100 C 160.155 239.900 160.200 239.855 160.200 239.800 V 233.800 C 160.200 233.745 160.155 233.700 160.100 233.700 H 157.200 C 157.100 233.700 157.200 233.800 157.200 233.700 V 227.900 C 157.200 227.800 157.100 227.900 157.200 227.900 H 160.100 C 160.155 227.900 160.200 227.855 160.200 227.800 V 221.800 C 160.200 221.745 160.155 221.700 160.100 221.700 H 157.200 C 157.100 221.700 157.200 221.800 157.200 221.700 V 215.900 C 157.200 215.800 157.100 215.900 157.200 215.900 H 160.100 C 160.155 215.900 160.200 215.855 160.200 215.800 V 209.800 C 160.200 209.745 160.155 209.700 160.100 209.700 H 157.200 C 157.100 209.700 157.200 209.800 157.200 209.700 V 203.900 C 157.200 203.800 157.100 203.900 157.200 203.900 H 160.100 C 160.155 203.900 160.200 203.855 160.200 203.800 V 197.800 C 160.200 197.745 160.155 197.700 160.100 197.700 H 157.200 C 157.100 197.700 157.200 197.800 157.200 197.700 V 191.900 C 157.200 191.800 157.100 191.900 157.200 191.900 H 160.100 C 160.155 191.900 160.200 191.855 160.200 191.800 V 185.800 C 160.200 185.745 160.155 185.700 160.100 185.700 H 157.200 C 157.100 185.700 157.200 185.800 157.200 185.700 V 179.900 C 157.200 179.800 157.100 179.900 157.200 179.900 H 160.100 C 160.155 179.900 160.200 179.855 160.200 179.800 V 170.800 V 167.800 C 160.200 167.745 160.155 167.700 160.100 167.700 H 157.100 H 148.100 C 148.045 167.700 148.000 167.745 148.000 167.800 V 170.700 C 148.000 170.800 148.100 170.700 148.000 170.700 H 142.200 C 142.100 170.700 142.200 170.800 142.200 170.700 V 167.800 C 142.200 167.745 142.155 167.700 142.100 167.700 H 136.100 C 136.045 167.700 136.000 167.745 136.000 167.800 V 170.700 C 136.000 170.800 136.100 170.700 136.000 170.700 H 130.200 C 130.100 170.700 130.200 170.800 130.200 170.700 V 167.800 C 130.200 167.745 130.155 167.700 130.100 167.700 H 124.100 C 124.045 167.700 124.000 167.745 124.000 167.800 V 170.700 C 124.000 170.800 124.100 170.700 124.000 170.700 H 118.200 C 118.100 170.700 118.200 170.800 118.200 170.700 V 167.800 C 118.200 167.745 118.155 167.700 118.100 167.700 H 112.100 C 112.045 167.700 112.000 167.745 112.000 167.800 V 170.700 C 112.000 170.800 112.100 170.700 112.000 170.700 H 106.200 C 106.100 170.700 106.200 170.800 106.200 170.700 V 167.800 C 106.200 167.745 106.155 167.700 106.100 167.700 H 100.100 C 100.045 167.700 100.000 167.745 100.000 167.800 V 170.700 C 100.000 170.800 100.100 170.700 100.000 170.700 H 94.200 C 94.100 170.700 94.200 170.800 94.200 170.700 V 167.800 C 94.200 167.745 94.155 167.700 94.100 167.700 H 88.100 C 88.045 167.700 88.000 167.745 88.000 167.800 V 170.700 C 88.000 170.800 88.100 170.700 88.000 170.700 H 82.200 C 82.100 170.700 82.200 170.800 82.200 170.700 V 167.800 C 82.200 167.745 82.155 167.700 82.100 167.700 H 76.100 C 76.045 167.700 76.000 167.745 76.000 167.800 V 170.700 C 76.000 170.800 76.100 170.700 76.000 170.700 H 70.200 C 70.100 170.700 70.200 170.800 70.200 170.700 V 167.800 C 70.200 167.745 70.155 167.700 70.100 167.700 H 64.100 C 64.045 167.700 64.000 167.745 64.000 167.800 V 170.700 C 64.000 170.800 64.100 170.700 64.000 170.700 H 58.200 C 58.100 170.700 58.200 170.800 58.200 170.700 V 167.800 C 58.200 167.745 58.155 167.700 58.100 167.700 H 52.100 C 52.045 167.700 52.000 167.745 52.000 167.800 V 170.700 C 52.000 170.800 52.100 170.700 52.000 170.700 H 46.200 C 46.100 170.700 46.200 170.800 46.200 170.700 V 167.800 C 46.200 167.745 46.155 167.700 46.100 167.700 H 40.100 C 40.045 167.700 40.000 167.745 40.000 167.800 V 170.700 C 40.000 170.800 40.100 170.700 40.000 170.700 H 34.200 C 34.100 170.700 34.200 170.800 34.200 170.700 V 167.800 C 34.200 167.745 34.155 167.700 34.100 167.700 H 28.100 C 28.045 167.700 28.000 167.745 28.000 167.800 V 170.700 C 28.000 170.800 28.100 170.700 28.000 170.700 H 22.200 C 22.100 170.700 22.200 170.800 22.200 170.700 V 167.800 C 22.200 167.745 22.155 167.700 22.100 167.700 H 13.100 H 10.100 C 10.045 167.700 10.000 167.745 10.000 167.800 V 170.800 V 179.800 C 10.000 179.855 10.045 179.900 10.100 179.900 H 13.000 C 13.100 179.900 13.000 179.800 13.000 179.900 V 185.700 C 13.000 185.800 13.100 185.700 13.000 185.700 H 10.100 C 10.045 185.700 10.000 185.745 10.000 185.800 V 191.800 C 10.000 191.855 10.045 191.900 10.100 191.900 H 13.000 C 13.100 191.900 13.000 191.800 13.000 191.900 V 197.700 C 13.000 197.800 13.100 197.700 13.000 197.700 H 10.100 C 10.045 197.700 10.000 197.745 10.000 197.800 V 203.800 C 10.000 203.855 10.045 203.900 10.100 203.900 H 13.000 C 13.100 203.900 13.000 203.800 13.000 203.900 V 209.700 C 13.000 209.800 13.100 209.700 13.000 209.700 H 10.100 C 10.045 209.700 10.000 209.745 10.000 209.800 V 215.800 C 10.000 215.855 10.045 215.900 10.100 215.900 H 13.000 C 13.100 215.900 13.000 215.800 13.000 215.900 V 221.700 C 13.000 221.800 13.100 221.700 13.000 221.700 H 10.100 C 10.045 221.700 10.000 221.745 10.000 221.800 V 227.800 C 10.000 227.855 10.045 227.900 10.100 227.900 H 13.000 C 13.100 227.900 13.000 227.800 13.000 227.900 V 233.700 C 13.000 233.800 13.100 233.700 13.000 233.700 H 10.100 C 10.045 233.700 10.000 233.745 10.000 233.800 V 239.800 C 10.000 239.855 10.045 239.900 10.100 239.900 H 13.000 C 13.100 239.900 13.000 239.800 13.000 239.900 V 245.700 C 13.000 245.800 13.100 245.700 13.000 245.700 H 10.100 C 10.045 245.700 10.000 245.745 10.000 245.800 V 254.800 C 10.000 254.855 10.045 254.900 10.100 254.900 H 13.100 Z" stroke="rgb(0,0,0)" stroke-width="0.20" />
  <text dominant-baseline="hanging" font-size="4px" style="font-family: sans-serif ; font-weight: normal; font-style: normal; fill: rgb(255,0,0)" text-anchor="middle" transform="matrix( 1.000 0.000 0.000 1.000 85.100 210.900 )">Wall 3</text>
</g>
<g id="p-5" style="fill:none;stroke-linecap:round;stroke-linejoin:round;">
  <path d="M 13.100 163.200 H 22.000 C 22.100 163.200 22.000 163.100 22.000 163.200 V 166.100 C 22.000 166.155 22.045 166.200 22.100 166.200 H 28.100 C 28.155 166.200 28.200 166.155 28.200 166.100 V 163.200 C 28.200 163.100 28.100 163.200 28.200 163.200 H 34.000 C 34.100 163.200 34.000 163.100 34.000 163.200 V 166.100 C 34.000 166.155 34.045 166.200 34.100 166.200 H 40.100 C 40.155 166.200 40.200 166.155 40.200 166.100 V 163.200 C 40.200 163.100 40.100 163.200 40.200 163.200 H 46.000 C 46.100 163.200 46.000 163.100 46.000 163.200 V 166.100 C 46.000 166.155 46.045 166.200 46.100 166.200 H 52.100 C 52.155 166.200 52.200 166.155 52.200 166.100 V 163.200 C 52.200 163.100 52.100 163.200 52.200 163.200 H 58.000 C 58.100 163.200 58.000 163.100 58.000 163.200 V 166.100 C 58.000 166.155 58.045 166.200 58.100 166.200 H 64.100 C 64.155 166.200 64.200 166.155 64.200 166.100 V 163.200 C 64.200 163.100 64.100 163.200 64.200 163.200 H 70.000 C 70.100 163.200 70.000 163.100 70.000 163.200 V 166.100 C 70.000 166.155 70.045 166.200 70.100 166.200 H 76.100 C 76.155 166.200 76.200 166.155 76.200 166.100 V 163.200 C 76.200 163.100 76.100 163.200 76.200 163.200 H 82.000 C 82.100 163.200 82.000 163.100 82.000 163.200 V 166.100 C 82.000 166.155 82.045 166.200 82.100 166.200 H 88.100 C 88.155 166.200 88.200 166.155 88.200 166.100 V 163.200 C 88.200 163.100 88.100 163.200 88.200 163.200 H 94.000 C 94.100 163.200 94.000 163.100 94.000 163.200 V 166.100 C 94.000 166.155 94.045 166.200 94.100 166.200 H 100.100 C 100.155 166.200 100.200 166.155 100.200 166.100 V 163.200 C 100.200 163.100 100.100 163.200 100.200 163.200 H 106.000 C 106.100 163.200 106.000 163.100 106.000 163.200 V 166.100 C 106.000 166.155 106.045 166.200 106.100 166.200 H 112.100 C 112.155 166.200 112.200 166.155 112.200 166.100 V 163.200 C 112.200 163.100 112.100 163.200 112.200 163.200 H 118.000 C 118.100 163.200 118.000 163.100 118.000 163.200 V 166.100 C 118.000 166.155 118.045 166.200 118.100 166.200 H 124.100 C 124.155 166.200 124.200 166.155 124.200 166.100 V 163.200 C 124.200 163.100 124.100 163.200 124.200 163.200 H 130.000 C 130.100 163.200 130.000 163.100 130.000 163.200 V 166.100 C 130.000 166.155 130.045 166.200 130.100 166.200 H 136.100 C 136.155 166.200 136.200 166.155 136.200 166.100 V 163.200 C 136.200 163.100 136.100 163.200 136.200 163.200 H 142.000 C 142.100 163.200 142.000 163.100 142.000 163.200 V 166.100 C 142.000 166.155 142.045 166.200 142.100 166.200 H 148.100 C 148.155 166.200 148.200 166.155 148.200 166.100 V 163.200 C 148.200 163.100 148.100 163.200 148.200 163.200 H 157.100 C 157.155 163.200 157.200 163.155 157.200 163.100 V 154.200 C 157.200 154.100 157.100 154.200 157.200 154.200 H 160.100 C 160.155 154.200 160.200 154.155 160.200 154.100 V 148.100 C 160.200 148.045 160.155 148.000 160.100 148.000 H 157.200 C 157.100 148.000 157.200 148.100 157.200 148.000 V 142.200 C 157.200 142.100 157.100 142.200 157.200 142.200 H 160.100 C 160.155 142.200 160.200 142.155 160.200 142.100 V 136.100 C 160.200 136.045 160.155 136.000 160.100 136.000 H 157.200 C 157.100 136.000 157.200 136.100 157.200 136.000 V 130.200 C 157.200 130.100 157.100 130.200 157.200 130.200 H 160.100 C 160.155 130.200 160.200 130.155 160.200 130.100 V 124.100 C 160.200 124.045 160.155 124.000 160.100 124.000 H 157.200 C 157.100 124.000 157.200 124.100 157.200 124.000 V 118.200 C 157.200 118.100 157.100 118.200 157.200 118.200 H 160.100 C 160.155 118.200 160.200 118.155 160.200 118.100 V 112.100 C 160.200 112.045 160.155 112.000 160.100 112.000 H 157.200 C 157.100 112.000 157.200 112.100 157.200 112.000 V 106.200 C 157.200 106.100 157.100 106.200 157.200 106.200 H 160.100 C 160.155 106.200 160.200 106.155 160.200 106.100 V 100.100 C 160.200 100.045 160.155 100.000 160.100 100.000 H 157.200 C 157.100 100.000 157.200 100.100 157.200 100.000 V 94.200 C 157.200 94.100 157.100 94.200 157.200 94.200 H 160.100 C 160.155 94.200 160.200 94.155 160.200 94.100 V 88.100 C 160.200 88.045 160.155 88.000 160.100 88.000 H 157.200 C 157.100 88.000 157.200 88.100 157.200 88.000 V 82.200 C 157.200 82.100 157.100 82.200 157.200 82.200 H 160.100 C 160.155 82.200 160.200 82.155 160.200 82.100 V 76.100 C 160.200 76.045 160.155 76.000 160.100 76.000 H 157.200 C 157.100 76.000 157.200 76.100 157.200 76.000 V 70.200 C 157.200 70.100 157.100 70.200 157.200 70.200 H 160.100 C 160.155 70.200 160.200 70.155 160.200 70.100 V 64.100 C 160.200 64.045 160.155 64.000 160.100 64.000 H 157.200 C 157.100 64.000 157.200 64.100 157.200 64.000 V 58.200 C 157.200 58.100 157.100 58.200 157.200 58.200 H 160.100 C 160.155 58.200 160.200 58.155 160.200 58.100 V 52.100 C 160.200 52.045 160.155 52.000 160.100 52.000 H 157.200 C 157.100 52.000 157.200 52.100 157.200 52.000 V 46.200 C 157.200 46.100 157.100 46.200 157.200 46.200 H 160.100 C 160.155 46.200 160.200 46.155 160.200 46.100 V 40.100 C 160.200 40.045 160.155 40.000 160.100 40.000 H 157.200 C 157.100 40.000 157.200 40.100 157.200 40.000 V 34.200 C 157.200 34.100 157.100 34.200 157.200 34.200 H 160.100 C 160.155 34.200 160.200 34.155 160.200 34.100 V 28.100 C 160.200 28.045 160.155 28.000 160.100 28.000 H 157.200 C 157.100 28.000 157.200 28.100 157.200 28.000 V 19.100 C 157.200 19.045 157.155 19.000 157.100 19.000 H 148.200 C 148.100 19.000 148.200 19.100 148.200 19.000 V 16.100 C 148.200 16.045 148.155 16.000 148.100 16.000 H 142.100 C 142.045 16.000 142.000 16.045 142.000 16.100 V 19.000 C 142.000 19.100 142.100 19.000 142.000 19.000 H 136.200 C 136.100 19.000 136.200 19.100 136.200 19.000 V 16.100 C 136.200 16.045 136.155 16.000 136.100 16.000 H 130.100 C 130.045 16.000 130.000 16.045 130.000 16.100 V 19.000 C 130.000 19.100 130.100 19.000 130.000 19.000 H 124.200 C 124.100 19.000 124.200 19.100 124.200 19.000 V 16.100 C 124.200 16.045 124.155 16.000 124.100 16.000 H 118.100 C 118.045 16.000 118.000 16.045 118.000 16.100 V 19.000 C 118.000 19.100 118.100 19.000 118.000 19.000 H 112.200 C 112.100 19.000 112.200 19.100 112.200 19.000 V 16.100 C 112.200 16.045 112.155 16.000 112.100 16.000 H 106.100 C 106.045 16.000 106.000 16.045 106.000 16.100 V 19.000 C 106.000 19.100 106.100 19.000 106.000 19.000 H 100.200 C 100.100 19.000 100.200 19.100 100.200 19.000 V 16.100 C 100.200 16.045 100.155 16.000 100.100 16.000 H 94.100 C 94.045 16.000 94.000 16.045 94.000 16.100 V 19.000 C 94.000 19.100 94.100 19.000 94.000 19.000 H 88.200 C 88.100 19.000 88.200 19.100 88.200 19.000 V 16.100 C 88.200 16.045 88.155 16.000 88.100 16.000 H 82.100 C 82.045 16.000 82.000 16.045 82.000 16.100 V 19.000 C 82.000 19.100 82.100 19.000 82.000 19.000 H 76.200 C 76.100 19.000 76.200 19.100 76.200 19.000 V 16.100 C 76.200 16.045 76.155 16.000 76.100 16.000 H 70.100 C 70.045 16.000 70.000 16.045 70.000 16.100 V 19.000 C 70.000 19.100 70.100 19.000 70.000 19.000 H 64.200 C 64.100 19.000 64.200 19.100 64.200 19.000 V 16.100 C 64.200 16.045 64.155 16.000 64.100 16.000 H 58.100 C 58.045 16.000 58.000 16.045 58.000 16.100 V 19.000 C 58.000 19.100 58.100 19.000 58.000 19.000 H 52.200 C 52.100 19.000 52.200 19.100 52.200 19.000 V 16.100 C 52.200 16.045 52.155 16.000 52.100 16.000 H 46.100 C 46.045 16.000 46.000 16.045 46.000 16.100 V 19.000 C 46.000 19.100 46.100 19.000 46.000 19.000 H 40.200 C 40.100 19.000 40.200 19.100 40.200 19.000 V 16.100 C 40.200 16.045 40.155 16.000 40.100 16.000 H 34.100 C 34.045 16.000 34.000 16.045 34.000 16.100 V 19.000 C 34.000 19.100 34.100 19.000 34.000 19.000 H 28.200 C 28.100 19.000 28.200 19.100 28.200 19.000 V 16.100 C 28.200 16.045 28.155 16.000 28.100 16.000 H 22.100 C 22.045 16.000 22.000 16.045 22.000 16.100 V 19.000 C 22.000 19.100 22.100 19.000 22.000 19.000 H 13.100 C 13.045 19.000 13.000 19.045 13.000 19.100 V 28.000 C 13.000 28.100 13.100 28.000 13.000 28.000 H 10.100 C 10.045 28.000 10.000 28.045 10.000 28.100 V 34.100 C 10.000 34.155 10.045 34.200 10.100 34.200 H 13.000 C 13.100 34.200 13.000 34.100 13.000 34.200 V 40.000 C 13.000 40.100 13.100 40.000 13.000 40.000 H 10.100 C 10.045 40.000 10.000 40.045 10.000 40.100 V 46.100 C 10.000 46.155 10.045 46.200 10.100 46.200 H 13.000 C 13.100 46.200 13.000 46.100 13.000 46.200 V 52.000 C 13.000 52.100 13.100 52.000 13.000 52.000 H 10.100 C 10.045 52.000 10.000 52.045 10.000 52.100 V 58.100 C 10.000 58.155 10.045 58.200 10.100 58.200 H 13.000 C 13.100 58.200 13.000 58.100 13.000 58.200 V 64.000 C 13.000 64.100 13.100 64.000 13.000 64.000 H 10.100 C 10.045 64.000 10.000 64.045 10.000 64.100 V 70.100 C 10.000 70.155 10.045 70.200 10.100 70.200 H 13.000 C 13.100 70.200 13.000 70.100 13.000 70.200 V 76.000 C 13.000 76.100 13.100 76.000 13.000 76.000 H 10.100 C 10.045 76.000 10.000 76.045 10.000 76.100 V 82.100 C 10.000 82.155 10.045 82.200 10.100 82.200 H 13.000 C 13.100 82.200 13.000 82.100 13.000 82.200 V 88.000 C 13.000 88.100 13.100 88.000 13.000 88.000 H 10.100 C 10.045 88.000 10.000 88.045 10.000 88.100 V 94.100 C 10.000 94.155 10.045 94.200 10.100 94.200 H 13.000 C 13.100 94.200 13.000 94.100 13.000 94.200 V 100.000 C 13.000 100.100 13.100 100.000 13.000 100.000 H 10.100 C 10.045 100.000 10.000 100.045 10.000 100.100 V 106.100 C 10.000 106.155 10.045 106.200 10.100 106.200 H 13.000 C 13.100 106.200 13.000 106.100 13.000 106.200 V 112.000 C 13.000 112.100 13.100 112.000 13.000 112.000 H 10.100 C 10.045 112.000 10.000 112.045 10.000 112.100 V 118.100 C 10.000 118.155 10.045 118.200 10.100 118.200 H 13.000 C 13.100 118.200 13.000 118.100 13.000 118.200 V 124.000 C 13.000 124.100 13.100 124.000 13.000 124.000 H 10.100 C 10.045 124.000 10.000 124.045 10.000 124.100 V 130.100 C 10.000 130.155 10.045 130.200 10.100 130.200 H 13.000 C 13.100 130.200 13.000 130.100 13.000 130.200 V 136.000 C 13.000 136.100 13.100 136.000 13.000 136.000 H 10.100 C 10.045 136.000 10.000 136.045 10.000 136.100 V 142.100 C 10.000 142.155 10.045 142.200 10.100 142.200 H 13.000 C 13.100 142.200 13.000 142.100 13.000 142.200 V 148.000 C 13.000 148.100 13.100 148.000 13.000 148.000 H 10.100 C 10.045 148.000 10.000 148.045 10.000 148.100 V 154.100 C 10.000 154.155 10.045 154.200 10.100 154.200 H 13.000 C 13.100 154.200 13.000 154.100 13.000 154.200 V 163.100 C 13.000 163.155 13.045 163.200 13.100 163.200 Z" stroke="rgb(0,0,0)" stroke-width="0.20" />
  <text dominant-baseline="hanging" font-size="4px" style="font-family: sans-serif ; font-weight: normal; font-style: normal; fill: rgb(255,0,0)" text-anchor="middle" transform="matrix( 1.000 0.000 0.000 1.000 85.100 89.200 )">Top</text>
</g>
<g id="p-6" style="fill:none;stroke-linecap:round;stroke-linejoin:round;">
  <path d="M 179.800 163.000 H 176.900 C 176.800 163.000 176.900 163.100 176.900 163.000 V 160.200 C 176.900 160.100 176.800 160.200 176.900 160.200 H 182.700 C 182.800 160.200 182.700 160.100 182.700 160.200 V 163.000 C 182.700 163.100 182.800 163.000 182.700 163.000 H 179.800 Z" stroke="rgb(0,0,255)" stroke-width="0.20" />
  <path d="M 191.800 163.000 H 188.900 C 188.800 163.000 188.900 163.100 188.900 163.000 V 160.200 C 188.900 160.100 188.800 160.200 188.900 160.200 H 194.700 C 194.800 160.200 194.700 160.100 194.700 160.200 V 163.000 C 194.700 163.100 194.800 163.000 194.700 163.000 H 191.800 Z" stroke="rgb(0,0,255)" stroke-width="0.20" />
  <path d="M 203.800 163.000 H 200.900 C 200.800 163.000 200.900 163.100 200.900 163.000 V 160.200 C 200.900 160.100 200.800 160.200 200.900 160.200 H 206.700 C 206.800 160.200 206.700 160.100 206.700 160.200 V 163.000 C 206.700 163.100 206.800 163.000 206.700 163.000 H 203.800 Z" stroke="rgb(0,0,255)" stroke-width="0.20" />
  <path d="M 215.800 163.000 H 212.900 C 212.800 163.000 212.900 163.100 212.900 163.000 V 160.200 C 212.900 160.100 212.800 160.200 212.900 160.200 H 218.700 C 218.800 160.200 218.700 160.100 218.700 160.200 V 163.000 C 218.700 163.100 218.800 163.000 218.700 163.000 H 215.800 Z" stroke="rgb(0,0,255)" stroke-width="0.20" />
  <path d="M 227.800 163.000 H 224.900 C 224.800 163.000 224.900 163.100 224.900 163.000 V 160.200 C 224.900 160.100 224.800 160.200 224.900 160.200 H 230.700 C 230.800 160.200 230.700 160.100 230.700 160.200 V 163.000 C 230.700 163.100 230.800 163.000 230.700 163.000 H 227.800 Z" stroke="rgb(0,0,255)" stroke-width="0.20" />
  <path d="M 239.800 163.000 H 236.900 C 236.800 163.000 236.900 163.100 236.900 163.000 V 160.200 C 236.900 160.100 236.800 160.200 236.900 160.200 H 242.700 C 242.800 160.200 242.700 160.100 242.700 160.200 V 163.000 C 242.700 163.100 242.800 163.000 242.700 163.000 H 239.800 Z" stroke="rgb(0,0,255)" stroke-width="0.20" />
  <path d="M 251.800 163.000 H 248.900 C 248.800 163.000 248.900 163.100 248.900 163.000 V 160.200 C 248.900 160.100 248.800 160.200 248.900 160.200 H 254.700 C 254.800 160.200 254.700 160.100 254.700 160.200 V 163.000 C 254.700 163.100 254.800 163.000 254.700 163.000 H 251.800 Z" stroke="rgb(0,0,255)" stroke-width="0.20" />
  <path d="M 263.800 163.000 H 260.900 C 260.800 163.000 260.900 163.100 260.900 163.000 V 160.200 C 260.900 160.100 260.800 160.200 260.900 160.200 H 266.700 C 266.800 160.200 266.700 160.100 266.700 160.200 V 163.000 C 266.700 163.100 266.800 163.000 266.700 163.000 H 263.800 Z" stroke="rgb(0,0,255)" stroke-width="0.20" />
  <path d="M 275.800 163.000 H 272.900 C 272.800 163.000 272.900 163.100 272.900 163.000 V 160.200 C 272.900 160.100 272.800 160.200 272.900 160.200 H 278.700 C 278.800 160.200 278.700 160.100 278.700 160.200 V 163.000 C 278.700 163.100 278.800 163.000 278.700 163.000 H 275.800 Z" stroke="rgb(0,0,255)" stroke-width="0.20" />
  <path d="M 287.800 163.000 H 284.900 C 284.800 163.000 284.900 163.100 284.900 163.000 V 160.200 C 284.900 160.100 284.800 160.200 284.900 160.200 H 290.700 C 290.800 160.200 290.700 160.100 290.700 160.200 V 163.000 C 290.700 163.100 290.800 163.000 290.700 163.000 H 287.800 Z" stroke="rgb(0,0,255)" stroke-width="0.20" />
  <path d="M 299.800 163.000 H 296.900 C 296.800 163.000 296.900 163.100 296.900 163.000 V 160.200 C 296.900 160.100 296.800 160.200 296.900 160.200 H 302.700 C 302.800 160.200 302.700 160.100 302.700 160.200 V 163.000 C 302.700 163.100 302.800 163.000 302.700 163.000 H 299.800 Z" stroke="rgb(0,0,255)" stroke-width="0.20" />
  <path d="M 167.800 166.200 H 311.800 H 317.800 C 317.855 166.200 317.900 166.155 317.900 166.100 V 160.100 V 16.100 V 10.100 C 317.900 10.045 317.855 10.000 317.800 10.000 H 311.800 H 167.800 H 161.800 C 161.745 10.000 161.700 10.045 161.700 10.100 V 16.100 V 160.100 V 166.100 C 161.700 166.155 161.745 166.200 161.800 166.200 H 167.800 Z" stroke="rgb(0,0,0)" stroke-width="0.20" />
  <path d="M 314.700 148.100 V 151.000 C 314.700 151.100 314.800 151.000 314.700 151.000 H 311.900 C 311.800 151.000 311.900 151.100 311.900 151.000 V 145.200 C 311.900 145.100 311.800 145.200 311.900 145.200 H 314.700 C 314.800 145.200 314.700 145.100 314.700 145.200 V 148.100 Z" stroke="rgb(0,0,255)" stroke-width="0.20" />
  <path d="M 314.700 136.100 V 139.000 C 314.700 139.100 314.800 139.000 314.700 139.000 H 311.900 C 311.800 139.000 311.900 139.100 311.900 139.000 V 133.200 C 311.900 133.100 311.800 133.200 311.900 133.200 H 314.700 C 314.800 133.200 314.700 133.100 314.700 133.200 V 136.100 Z" stroke="rgb(0,0,255)" stroke-width="0.20" />
  <path d="M 314.700 124.100 V 127.000 C 314.700 127.100 314.800 127.000 314.700 127.000 H 311.900 C 311.800 127.000 311.900 127.100 311.900 127.000 V 121.200 C 311.900 121.100 311.800 121.200 311.900 121.200 H 314.700 C 314.800 121.200 314.700 121.100 314.700 121.200 V 124.100 Z" stroke="rgb(0,0,255)" stroke-width="0.20" />
  <path d="M 314.700 112.100 V 115.000 C 314.700 115.100 314.800 115.000 314.700 115.000 H 311.900 C 311.800 115.000 311.900 115.100 311.900 115.000 V 109.200 C 311.900 109.100 311.800 109.200 311.900 109.200 H 314.700 C 314.800 109.200 314.700 109.100 314.700 109.200 V 112.100 Z" stroke="rgb(0,0,255)" stroke-width="0.20" />
  <path d="M 314.700 100.100 V 103.000 C 314.700 103.100 314.800 103.000 314.700 103.000 H 311.900 C 311.800 103.000 311.900 103.100 311.900 103.000 V 97.200 C 311.900 97.100 311.800 97.200 311.900 97.200 H 314.700 C 314.800 97.200 314.700 97.100 314.700 97.200 V 100.100 Z" stroke="rgb(0,0,255)" stroke-width="0.20" />
  <path d="M 314.700 88.100 V 91.000 C 314.700 91.100 314.800 91.000 314.700 91.000 H 311.900 C 311.800 91.000 311.900 91.100 311.900 91.000 V 85.200 C 311.900 85.100 311.800 85.200 311.900 85.200 H 314.700 C 314.800 85.200 314.700 85.100 314.700 85.200 V 88.100 Z" stroke="rgb(0,0,255)" stroke-width="0.20" />
  <path d="M 314.700 76.100 V 79.000 C 314.700 79.100 314.800 79.000 314.700 79.000 H 311.900 C 311.800 79.000 311.900 79.100 311.900 79.000 V 73.200 C 311.900 73.100 311.800 73.200 311.900 73.200 H 314.700 C 314.800 73.200 314.700 73.100 314.700 73.200 V 76.100 Z" stroke="rgb(0,0,255)" stroke-width="0.20" />
  <path d="M 314.700 64.100 V 67.000 C 314.700 67.100 314.800 67.000 314.700 67.000 H 311.900 C 311.800 67.000 311.900 67.100 311.900 67.000 V 61.200 C 311.900 61.100 311.800 61.200 311.900 61.200 H 314.700 C 314.800 61.200 314.700 61.100 314.700 61.200 V 64.100 Z" stroke="rgb(0,0,255)" stroke-width="0.20" />
  <path d="M 314.700 52.100 V 55.000 C 314.700 55.100 314.800 55.000 314.700 55.000 H 311.900 C 311.800 55.000 311.900 55.100 311.900 55.000 V 49.200 C 311.900 49.100 311.800 49.200 311.900 49.200 H 314.700 C 314.800 49.200 314.700 49.100 314.700 49.200 V 52.100 Z" stroke="rgb(0,0,255)" stroke-width="0.20" />
  <path d="M 314.700 40.100 V 43.000 C 314.700 43.100 314.800 43.000 314.700 43.000 H 311.900 C 311.800 43.000 311.900 43.100 311.900 43.000 V 37.200 C 311.900 37.100 311.800 37.200 311.900 37.200 H 314.700 C 314.800 37.200 314.700 37.100 314.700 37.200 V 40.100 Z" stroke="rgb(0,0,255)" stroke-width="0.20" />
  <path d="M 314.700 28.100 V 31.000 C 314.700 31.100 314.800 31.000 314.700 31.000 H 311.900 C 311.800 31.000 311.900 31.100 311.900 31.000 V 25.200 C 311.900 25.100 311.800 25.200 311.900 25.200 H 314.700 C 314.800 25.200 314.700 25.100 314.700 25.200 V 28.100 Z" stroke="rgb(0,0,255)" stroke-width="0.20" />
  <path d="M 299.800 13.200 H 302.700 C 302.800 13.200 302.700 13.100 302.700 13.200 V 16.000 C 302.700 16.100 302.800 16.000 302.700 16.000 H 296.900 C 296.800 16.000 296.900 16.100 296.900 16.000 V 13.200 C 296.900 13.100 296.800 13.200 296.900 13.200 H 299.800 Z" stroke="rgb(0,0,255)" stroke-width="0.20" />
  <path d="M 287.800 13.200 H 290.700 C 290.800 13.200 290.700 13.100 290.700 13.200 V 16.000 C 290.700 16.100 290.800 16.000 290.700 16.000 H 284.900 C 284.800 16.000 284.900 16.100 284.900 16.000 V 13.200 C 284.900 13.100 284.800 13.200 284.900 13.200 H 287.800 Z" stroke="rgb(0,0,255)" stroke-width="0.20" />
  <path d="M 275.800 13.200 H 278.700 C 278.800 13.200 278.700 13.100 278.700 13.200 V 16.000 C 278.700 16.100 278.800 16.000 278.700 16.000 H 272.900 C 272.800 16.000 272.900 16.100 272.900 16.000 V 13.200 C 272.900 13.100 272.800 13.200 272.900 13.200 H 275.800 Z" stroke="rgb(0,0,255)" stroke-width="0.20" />
  <path d="M 263.800 13.200 H 266.700 C 266.800 13.200 266.700 13.100 266.700 13.200 V 16.000 C 266.700 16.100 266.800 16.000 266.700 16.000 H 260.900 C 260.800 16.000 260.900 16.100 260.900 16.000 V 13.200 C 260.900 13.100 260.800 13.200 260.900 13.200 H 263.800 Z" stroke="rgb(0,0,255)" stroke-width="0.20" />
  <path d="M 251.800 13.200 H 254.700 C 254.800 13.200 254.700 13.100 254.700 13.200 V 16.000 C 254.700 16.100 254.800 16.000 254.700 16.000 H 248.900 C 248.800 16.000 248.900 16.100 248.900 16.000 V 13.200 C 248.900 13.100 248.800 13.200 248.900 13.200 H 251.800 Z" stroke="rgb(0,0,255)" stroke-width="0.20" />
  <path d="M 239.800 13.200 H 242.700 C 242.800 13.200 242.700 13.100 242.700 13.200 V 16.000 C 242.700 16.100 242.800 16.000 242.700 16.000 H 236.900 C 236.800 16.000 236.900 16.100 236.900 16.000 V 13.200 C 236.900 13.100 236.800 13.200 236.900 13.200 H 239.800 Z" stroke="rgb(0,0,255)" stroke-width="0.20" />
  <path d="M 227.800 13.200 H 230.700 C 230.800 13.200 230.700 13.100 230.700 13.200 V 16.000 C 230.700 16.100 230.800 16.000 230.700 16.000 H 224.900 C 224.800 16.000 224.900 16.100 224.900 16.000 V 13.200 C 224.900 13.100 224.800 13.200 224.900 13.200 H 227.800 Z" stroke="rgb(0,0,255)" stroke-width="0.20" />
  <path d="M 215.800 13.200 H 218.700 C 218.800 13.200 218.700 13.100 218.700 13.200 V 16.000 C 218.700 16.100 218.800 16.000 218.700 16.000 H 212.900 C 212.800 16.000 212.900 16.100 212.900 16.000 V 13.200 C 212.900 13.100 212.800 13.200 212.900 13.200 H 215.800 Z" stroke="rgb(0,0,255)" stroke-width="0.20" />
  <path d="M 203.800 13.200 H 206.700 C 206.800 13.200 206.700 13.100 206.700 13.200 V 16.000 C 206.700 16.100 206.800 16.000 206.700 16.000 H 200.900 C 200.800 16.000 200.900 16.100 200.900 16.000 V 13.200 C 200.900 13.100 200.800 13.200 200.900 13.200 H 203.800 Z" stroke="rgb(0,0,255)" stroke-width="0.20" />
  <path d="M 191.800 13.200 H 194.700 C 194.800 13.200 194.700 13.100 194.700 13.200 V 16.000 C 194.700 16.100 194.800 16.000 194.700 16.000 H 188.900 C 188.800 16.000 188.900 16.100 188.900 16.000 V 13.200 C 188.900 13.100 188.800 13.200 188.900 13.200 H 191.800 Z" stroke="rgb(0,0,255)" stroke-width="0.20" />
  <path d="M 179.800 13.200 H 182.700 C 182.800 13.200 182.700 13.100 182.700 13.200 V 16.000 C 182.700 16.100 182.800 16.000 182.700 16.000 H 176.900 C 176.800 16.000 176.900 16.100 176.900 16.000 V 13.200 C 176.900 13.100 176.800 13.200 176.900 13.200 H 179.800 Z" stroke="rgb(0,0,255)" stroke-width="0.20" />
  <path d="M 164.900 28.100 V 25.200 C 164.900 25.100 164.800 25.200 164.900 25.200 H 167.700 C 167.800 25.200 167.700 25.100 167.700 25.200 V 31.000 C 167.700 31.100 167.800 31.000 167.700 31.000 H 164.900 C 164.800 31.000 164.900 31.100 164.900 31.000 V 28.100 Z" stroke="rgb(0,0,255)" stroke-width="0.20" />
  <path d="M 164.900 40.100 V 37.200 C 164.900 37.100 164.800 37.200 164.900 37.200 H 167.700 C 167.800 37.200 167.700 37.100 167.700 37.200 V 43.000 C 167.700 43.100 167.800 43.000 167.700 43.000 H 164.900 C 164.800 43.000 164.900 43.100 164.900 43.000 V 40.100 Z" stroke="rgb(0,0,255)" stroke-width="0.20" />
  <path d="M 164.900 52.100 V 49.200 C 164.900 49.100 164.800 49.200 164.900 49.200 H 167.700 C 167.800 49.200 167.700 49.100 167.700 49.200 V 55.000 C 167.700 55.100 167.800 55.000 167.700 55.000 H 164.900 C 164.800 55.000 164.900 55.100 164.900 55.000 V 52.100 Z" stroke="rgb(0,0,255)" stroke-width="0.20" />
  <path d="M 164.900 64.100 V 61.200 C 164.900 61.100 164.800 61.200 164.900 61.200 H 167.700 C 167.800 61.200 167.700 61.100 167.700 61.200 V 67.000 C 167.700 67.100 167.800 67.000 167.700 67.000 H 164.900 C 164.800 67.000 164.900 67.100 164.900 67.000 V 64.100 Z" stroke="rgb(0,0,255)" stroke-width="0.20" />
  <path d="M 164.900 76.100 V 73.200 C 164.900 73.100 164.800 73.200 164.900 73.200 H 167.700 C 167.800 73.200 167.700 73.100 167.700 73.200 V 79.000 C 167.700 79.100 167.800 79.000 167.700 79.000 H 164.900 C 164.800 79.000 164.900 79.100 164.900 79.000 V 76.100 Z" stroke="rgb(0,0,255)" stroke-width="0.20" />
  <path d="M 164.900 88.100 V 85.200 C 164.900 85.100 164.800 85.200 164.900 85.200 H 167.700 C 167.800 85.200 167.700 85.100 167.700 85.200 V 91.000 C 167.700 91.100 167.800 91.000 167.700 91.000 H 164.900 C 164.800 91.000 164.900 91.100 164.900 91.000 V 88.100 Z" stroke="rgb(0,0,255)" stroke-width="0.20" />
  <path d="M 164.900 100.100 V 97.200 C 164.900 97.100 164.800 97.200 164.900 97.200 H 167.700 C 167.800 97.200 167.700 97.100 167.700 97.200 V 103.000 C 167.700 103.100 167.800 103.000 167.700 103.000 H 164.900 C 164.800 103.000 164.900 103.100 164.900 103.000 V 100.100 Z" stroke="rgb(0,0,255)" stroke-width="0.20" />
  <path d="M 164.900 112.100 V 109.200 C 164.900 109.100 164.800 109.200 164.900 109.200 H 167.700 C 167.800 109.200 167.700 109.100 167.700 109.200 V 115.000 C 167.700 115.100 167.800 115.000 167.700 115.000 H 164.900 C 164.800 115.000 164.900 115.100 164.900 115.000 V 112.100 Z" stroke="rgb(0,0,255)" stroke-width="0.20" />
  <path d="M 164.900 124.100 V 121.200 C 164.900 121.100 164.800 121.200 164.900 121.200 H 167.700 C 167.800 121.200 167.700 121.100 167.700 121.200 V 127.000 C 167.700 127.100 167.800 127.000 167.700 127.000 H 164.900 C 164.800 127.000 164.900 127.100 164.900 127.000 V 124.100 Z" stroke="rgb(0,0,255)" stroke-width="0.20" />
  <path d="M 164.900 136.100 V 133.200 C 164.900 133.100 164.800 133.200 164.900 133.200 H 167.700 C 167.800 133.200 167.700 133.100 167.700 133.200 V 139.000 C 167.700 139.100 167.800 139.000 167.700 139.000 H 164.900 C 164.800 139.000 164.900 139.100 164.900 139.000 V 136.100 Z" stroke="rgb(0,0,255)" stroke-width="0.20" />
  <path d="M 164.900 148.100 V 145.200 C 164.900 145.100 164.800 145.200 164.900 145.200 H 167.700 C 167.800 145.200 167.700 145.100 167.700 145.200 V 151.000 C 167.700 151.100 167.800 151.000 167.700 151.000 H 164.900 C 164.800 151.000 164.900 151.100 164.900 151.000 V 148.100 Z" stroke="rgb(0,0,255)" stroke-width="0.20" />
  <text dominant-baseline="hanging" font-size="4px" style="font-family: sans-serif ; font-weight: normal; font-style: normal; fill: rgb(255,0,0)" text-anchor="middle" transform="matrix( 1.000 0.000 0.000 1.000 239.800 86.200 )">Base</text>
</g>
</svg>