<?xml version="1.0" encoding="UTF-8" standalone="no"?>
<svg
   height="43.467999mm"
   viewBox="0 0 44.712002 43.467998"
   width="44.712002mm"
   version="1.1"
   id="svg12"
   sodipodi:docname="Gears (2).svg"
   inkscape:version="1.4.3 (0d15f75, 2025-12-25)"
   xmlns:inkscape="http://www.inkscape.org/namespaces/inkscape"
   xmlns:sodipodi="http://sodipodi.sourceforge.net/DTD/sodipodi-0.dtd"
   xmlns="http://www.w3.org/2000/svg"
   xmlns:svg="http://www.w3.org/2000/svg"
   xmlns:rdf="http://www.w3.org/1999/02/22-rdf-syntax-ns#"
   xmlns:cc="http://creativecommons.org/ns#"
   xmlns:dc="http://purl.org/dc/elements/1.1/">
  <defs
     id="defs12" />
  <sodipodi:namedview
     id="namedview12"
     pagecolor="#ffffff"
     bordercolor="#000000"
     borderopacity="0.25"
     inkscape:showpageshadow="2"
     inkscape:pageopacity="0.0"
     inkscape:pagecheckerboard="0"
     inkscape:deskcolor="#d1d1d1"
     inkscape:document-units="mm"
     inkscape:zoom="4.6101573"
     inkscape:cx="105.63631"
     inkscape:cy="70.171141"
     inkscape:window-width="2560"
     inkscape:window-height="1566"
     inkscape:window-x="-11"
     inkscape:window-y="-11"
     inkscape:window-maximized="1"
     inkscape:current-layer="svg12" />
  <!--
Gears - Gears

Created with Boxes.py (https://boxes.hackerspace-bamberg.de/)
Creation date: 2026-04-30 10:02:04
Command line (remove spaces between dashes): boxes Gears - -teeth1=10 - -dpercentage1=85 - -modulus=3.82 - -spacing=0.5
Url: https://boxes.hackerspace-bamberg.de/Gears?teeth1=10&shaft1=6.0&dpercentage1=85&teeth2=32&shaft2=0.0&dpercentage2=0&modulus=3.82&pressure_angle=20&profile_shift=20&thickness=3.0&burn=0.1&format=svg&labels=0&labels=1&reference=100.0&tabs=0.0&qr_code=0&inner_corners=loop&spacing=0.5&debug=0&language=zh_CN&render=2
Url short: https://boxes.hackerspace-bamberg.de/Gears?teeth1=10&dpercentage1=85&modulus=3.82&spacing=0.5
SettingsUrl: https://boxes.hackerspace-bamberg.de/Gears?teeth1=10&shaft1=6.0&dpercentage1=85&teeth2=32&shaft2=0.0&dpercentage2=0&modulus=3.82&pressure_angle=20&profile_shift=20&thickness=3.0&burn=0.1&format=svg&labels=0&labels=1&reference=100.0&tabs=0.0&qr_code=0&inner_corners=loop&spacing=0.5&debug=0&language=zh_CN&render=2
SettingsUrl short: https://boxes.hackerspace-bamberg.de/Gears?teeth1=10&dpercentage1=85&modulus=3.82&spacing=0.5
-->
  <title
     id="title1">Gears</title>
  <metadata
     id="metadata1">
    <rdf:RDF>
      <cc:Work>
        <dc:title>Part - Gears</dc:title>
        <dc:date>2026-04-30 10:02:04</dc:date>
        <dc:source>https://boxes.hackerspace-bamberg.de/Gears?teeth1=10&amp;shaft1=6.0&amp;dpercentage1=85&amp;teeth2=32&amp;shaft2=0.0&amp;dpercentage2=0&amp;modulus=3.82&amp;pressure_angle=20&amp;profile_shift=20&amp;thickness=3.0&amp;burn=0.1&amp;format=svg&amp;labels=0&amp;labels=1&amp;reference=100.0&amp;tabs=0.0&amp;qr_code=0&amp;inner_corners=loop&amp;spacing=0.5&amp;debug=0&amp;language=zh_CN&amp;render=2</dc:source>
        <dc:source>https://boxes.hackerspace-bamberg.de/Gears?teeth1=10&amp;dpercentage1=85&amp;modulus=3.82&amp;spacing=0.5</dc:source>
        <dc:description>Gears

Created with Boxes.py (https://boxes.hackerspace-bamberg.de/)
Command line: boxes Gears --teeth1=10 --shaft1=6.0 --dpercentage1=85 --teeth2=32 --shaft2=0.0 --dpercentage2=0 --modulus=3.82 --pressure_angle=20 --profile_shift=20 --thickness=3.0 --burn=0.1 --format=svg --labels=0 --labels=1 --reference=100.0 --tabs=0.0 --qr_code=0 --inner_corners=loop --spacing=0.5 --debug=0
Command line short: boxes Gears --teeth1=10 --dpercentage1=85 --modulus=3.82 --spacing=0.5
Url: https://boxes.hackerspace-bamberg.de/Gears?teeth1=10&amp;shaft1=6.0&amp;dpercentage1=85&amp;teeth2=32&amp;shaft2=0.0&amp;dpercentage2=0&amp;modulus=3.82&amp;pressure_angle=20&amp;profile_shift=20&amp;thickness=3.0&amp;burn=0.1&amp;format=svg&amp;labels=0&amp;labels=1&amp;reference=100.0&amp;tabs=0.0&amp;qr_code=0&amp;inner_corners=loop&amp;spacing=0.5&amp;debug=0&amp;language=zh_CN&amp;render=2
Url short: https://boxes.hackerspace-bamberg.de/Gears?teeth1=10&amp;dpercentage1=85&amp;modulus=3.82&amp;spacing=0.5
SettingsUrl: https://boxes.hackerspace-bamberg.de/Gears?teeth1=10&amp;shaft1=6.0&amp;dpercentage1=85&amp;teeth2=32&amp;shaft2=0.0&amp;dpercentage2=0&amp;modulus=3.82&amp;pressure_angle=20&amp;profile_shift=20&amp;thickness=3.0&amp;burn=0.1&amp;format=svg&amp;labels=0&amp;labels=1&amp;reference=100.0&amp;tabs=0.0&amp;qr_code=0&amp;inner_corners=loop&amp;spacing=0.5&amp;debug=0&amp;language=zh_CN&amp;render=2
SettingsUrl short: https://boxes.hackerspace-bamberg.de/Gears?teeth1=10&amp;dpercentage1=85&amp;modulus=3.82&amp;spacing=0.5
</dc:description>
      </cc:Work>
    </rdf:RDF>
  </metadata>
  <g
     id="p-2"
     style="fill:none;stroke-linecap:round;stroke-linejoin:round"
     transform="translate(-10.65,-100.272)">
    <path
       d="m 35.036,124.077 c -0.408,0.4 -0.925,0.67 -1.486,0.777 -0.561,0.108 -1.141,0.047 -1.667,-0.174 -0.527,-0.222 -0.976,-0.593 -1.292,-1.069 -0.316,-0.476 -0.485,-1.034 -0.485,-1.605 0,-0.571 0.169,-1.129 0.485,-1.605 0.316,-0.476 0.765,-0.847 1.292,-1.069 0.526,-0.221 1.106,-0.282 1.667,-0.174 0.561,0.107 1.078,0.377 1.486,0.777 -0.019,-0.019 -0.03,-0.045 -0.03,-0.071 v 4.284"
       stroke="#0000ff"
       stroke-width="0.2"
       id="path4" />
    <path
       d="m 50.679,125.177 0.399,0.014 0.403,-0.033 0.404,-0.065 0.407,-0.091 0.408,-0.116 0.41,-0.139 0.41,-0.16 0.409,-0.18 0.409,-0.201 0.408,-0.221 0.451,-0.266 0.049,-0.882 0.016,-0.831 -0.016,-0.831 -0.049,-0.882 -0.451,-0.266 -0.408,-0.221 -0.409,-0.201 -0.409,-0.18 -0.41,-0.16 -0.41,-0.139 -0.408,-0.116 -0.407,-0.091 -0.404,-0.065 -0.403,-0.033 -0.399,0.014 -3.293,0.572 -0.194,-0.919 -0.285,-0.999 -0.356,-0.976 -0.384,-0.856 3.001,-1.473 0.33,-0.224 0.307,-0.263 0.289,-0.291 0.275,-0.313 0.263,-0.333 0.25,-0.353 0.237,-0.37 0.225,-0.387 0.213,-0.403 0.2,-0.419 0.209,-0.48 -0.478,-0.742 -0.477,-0.682 -0.501,-0.663 -0.558,-0.684 -0.521,0.049 -0.46,0.062 -0.449,0.078 -0.437,0.094 -0.426,0.112 -0.413,0.128 -0.398,0.147 -0.383,0.165 -0.365,0.185 -0.346,0.21 -0.314,0.245 -2.328,2.399 -0.697,-0.63 -0.818,-0.64 -0.861,-0.58 -0.814,-0.468 1.561,-2.955 0.136,-0.375 0.093,-0.393 0.064,-0.405 0.039,-0.415 0.016,-0.425 -0.005,-0.432 -0.026,-0.439 -0.045,-0.445 -0.065,-0.452 -0.084,-0.456 -0.114,-0.511 -0.823,-0.319 -0.786,-0.272 -0.795,-0.242 -0.853,-0.225 -0.393,0.346 -0.336,0.32 -0.317,0.327 -0.299,0.334 -0.279,0.34 -0.258,0.347 -0.236,0.352 -0.213,0.359 -0.186,0.365 -0.156,0.373 -0.111,0.383 -0.473,3.309 -0.934,-0.1 -1.038,-0.037 -1.038,0.037 -0.934,0.1 -0.473,-3.309 -0.111,-0.383 -0.156,-0.373 -0.186,-0.365 -0.213,-0.359 -0.236,-0.352 -0.258,-0.347 -0.279,-0.34 -0.299,-0.334 -0.317,-0.327 -0.336,-0.32 -0.393,-0.346 -0.853,0.225 -0.795,0.242 -0.786,0.272 -0.823,0.319 -0.114,0.511 -0.084,0.456 -0.065,0.452 -0.045,0.445 -0.026,0.439 -0.005,0.432 0.016,0.425 0.039,0.415 0.064,0.405 0.093,0.393 0.136,0.375 1.561,2.955 -0.814,0.468 -0.861,0.58 -0.818,0.64 -0.697,0.63 -2.328,-2.399 -0.314,-0.245 -0.346,-0.21 -0.365,-0.185 -0.383,-0.165 -0.398,-0.147 -0.413,-0.128 -0.426,-0.112 -0.437,-0.094 -0.449,-0.078 -0.46,-0.062 -0.521,-0.049 -0.558,0.684 -0.501,0.663 -0.477,0.682 -0.478,0.742 0.209,0.48 0.2,0.419 0.213,0.403 0.225,0.387 0.237,0.37 0.25,0.353 0.263,0.333 0.275,0.313 0.289,0.291 0.307,0.263 0.33,0.224 3.001,1.473 -0.384,0.856 -0.356,0.976 -0.285,0.999 -0.194,0.919 -3.293,-0.572 -0.399,-0.014 -0.403,0.033 -0.404,0.065 -0.407,0.091 -0.408,0.116 -0.41,0.139 -0.41,0.16 -0.409,0.18 -0.409,0.201 -0.408,0.221 -0.451,0.266 -0.049,0.882 -0.016,0.831 0.016,0.831 0.049,0.882 0.451,0.266 0.408,0.221 0.409,0.201 0.409,0.18 0.41,0.16 0.41,0.139 0.408,0.116 0.407,0.091 0.404,0.065 0.403,0.033 0.399,-0.014 3.293,-0.572 0.194,0.919 0.285,0.999 0.356,0.976 0.384,0.856 -3.001,1.473 -0.33,0.224 -0.307,0.263 -0.289,0.291 -0.275,0.313 -0.263,0.333 -0.25,0.353 -0.237,0.37 -0.225,0.387 -0.213,0.403 -0.2,0.419 -0.209,0.48 0.478,0.742 0.477,0.682 0.501,0.663 0.558,0.684 0.521,-0.049 0.46,-0.062 0.449,-0.078 0.437,-0.094 0.426,-0.112 0.413,-0.128 0.398,-0.147 0.383,-0.165 0.365,-0.185 0.346,-0.21 0.314,-0.245 2.328,-2.399 0.697,0.63 0.818,0.64 0.861,0.58 0.814,0.468 -1.561,2.955 -0.136,0.375 -0.093,0.393 -0.064,0.405 -0.039,0.415 -0.016,0.425 0.005,0.432 0.026,0.439 0.045,0.445 0.065,0.452 0.084,0.456 0.114,0.511 0.823,0.319 0.786,0.272 0.795,0.242 0.853,0.225 0.393,-0.346 0.336,-0.32 0.317,-0.327 0.299,-0.334 0.279,-0.34 0.258,-0.347 0.236,-0.352 0.213,-0.359 0.186,-0.365 0.156,-0.373 0.111,-0.383 0.473,-3.309 0.934,0.1 1.038,0.037 1.038,-0.037 0.934,-0.1 0.473,3.309 0.111,0.383 0.156,0.373 0.186,0.365 0.213,0.359 0.236,0.352 0.258,0.347 0.279,0.34 0.299,0.334 0.317,0.327 0.336,0.32 0.393,0.346 0.853,-0.225 0.795,-0.242 0.786,-0.272 0.823,-0.319 0.114,-0.511 0.084,-0.456 0.065,-0.452 0.045,-0.445 0.026,-0.439 0.005,-0.432 -0.016,-0.425 -0.039,-0.415 -0.064,-0.405 -0.093,-0.393 -0.136,-0.375 -1.561,-2.955 0.814,-0.468 0.861,-0.58 0.818,-0.64 0.697,-0.63 2.328,2.399 0.314,0.245 0.346,0.21 0.365,0.185 0.383,0.165 0.398,0.147 0.413,0.128 0.426,0.112 0.437,0.094 0.449,0.078 0.46,0.062 0.521,0.049 0.558,-0.684 0.501,-0.663 0.477,-0.682 0.478,-0.742 -0.209,-0.48 -0.2,-0.419 -0.213,-0.403 -0.225,-0.387 -0.237,-0.37 -0.25,-0.353 -0.263,-0.333 -0.275,-0.313 -0.289,-0.291 -0.307,-0.263 -0.33,-0.224 -3.001,-1.473 0.384,-0.856 0.356,-0.976 0.285,-0.999 0.194,-0.919 z m -9.34,-5.671 h 0.849 c 0.02,0 0.04,-0.006 0.057,-0.018 0.017,-0.012 0.03,-0.029 0.037,-0.048 0.007,-0.019 0.008,-0.04 0.002,-0.06 -0.441,-1.62 -1.299,-3.097 -2.488,-4.283 -1.189,-1.185 -2.667,-2.039 -4.289,-2.476 -1.621,-0.437 -3.329,-0.441 -4.952,-0.013 -0.02,0.005 -0.038,0.016 -0.051,0.032 -0.013,0.016 -0.022,0.035 -0.023,0.056 -0.002,0.02 0.002,0.041 0.013,0.058 l 0.424,0.735 c 0.022,0.039 0.067,0.058 0.11,0.048 1.413,-0.334 2.887,-0.305 4.286,0.084 1.399,0.39 2.676,1.128 3.713,2.144 1.036,1.017 1.799,2.279 2.216,3.67 0.006,0.019 0.018,0.037 0.034,0.05 0.016,0.012 0.036,0.02 0.057,0.021 0.02,0.001 0.041,-0.004 0.058,-0.015 m -14.718,-3.452 -0.424,-0.735 c -0.01,-0.017 -0.026,-0.032 -0.044,-0.04 -0.019,-0.009 -0.04,-0.012 -0.06,-0.008 -0.02,0.004 -0.039,0.013 -0.054,0.028 -1.182,1.192 -2.032,2.673 -2.464,4.296 -0.433,1.622 -0.433,3.33 0,4.952 0.432,1.623 1.282,3.104 2.464,4.296 0.015,0.015 0.034,0.024 0.054,0.028 0.02,0.004 0.041,0.001 0.06,-0.008 0.018,-0.008 0.034,-0.023 0.044,-0.04 l 0.424,-0.735 c 0.022,-0.039 0.017,-0.087 -0.013,-0.119 -0.996,-1.057 -1.708,-2.348 -2.07,-3.754 -0.362,-1.407 -0.362,-2.881 0,-4.288 0.362,-1.406 1.074,-2.697 2.07,-3.754 0.014,-0.015 0.023,-0.034 0.026,-0.054 0.003,-0.021 -0.001,-0.041 -0.01,-0.06 -0.009,-0.018 -0.024,-0.033 -0.042,-0.043 m 4.37,14.472 -0.425,0.735 c -0.01,0.017 -0.015,0.038 -0.013,0.058 0.002,0.021 0.01,0.04 0.023,0.056 0.014,0.016 0.031,0.027 0.051,0.032 1.624,0.428 3.332,0.424 4.953,-0.013 1.621,-0.437 3.1,-1.291 4.289,-2.476 1.189,-1.186 2.047,-2.663 2.488,-4.283 0.005,-0.02 0.004,-0.041 -0.003,-0.06 -0.007,-0.019 -0.019,-0.036 -0.036,-0.048 -0.017,-0.012 -0.037,-0.018 -0.058,-0.018 h -0.848 c -0.044,0 -0.083,0.029 -0.096,0.071 -0.417,1.391 -1.18,2.653 -2.217,3.67 -1.037,1.016 -2.314,1.754 -3.713,2.144 -1.398,0.389 -2.873,0.418 -4.286,0.084 -0.02,-0.004 -0.041,-0.003 -0.06,0.005 -0.019,0.007 -0.035,0.021 -0.047,0.038 -0.011,0.017 -0.017,0.037 -0.016,0.058"
       stroke="#000000"
       stroke-width="0.2"
       id="path5" />
  </g>
</svg>
