<?xml version='1.0' encoding='utf-8'?>
<svg height="479.70mm" viewBox="0.0 0.0 251.10 479.70" width="251.10mm" xmlns="http://www.w3.org/2000/svg" xmlns:cc="http://creativecommons.org/ns#" xmlns:dc="http://purl.org/dc/elements/1.1/" xmlns:inkscape="http://www.inkscape.org/namespaces/inkscape" xmlns:rdf="http://www.w3.org/1999/02/22-rdf-syntax-ns#" xmlns:svg="http://www.w3.org/2000/svg" xmlns:xlink="http://www.w3.org/1999/xlink">
<!--
SlidingDrawer - Sliding drawer box

Created with Boxes.py (https://boxes.hackerspace-bamberg.de/)
Creation date: 2026-04-17 07:46:45
Command line (remove spaces between dashes): boxes SlidingDrawer - -x=130 - -y=110 - -h=50 - -outside=0 - -outside=1 - -spacing=0.5
Url: https://boxes.hackerspace-bamberg.de/SlidingDrawer?FingerJoint_style=rectangular&FingerJoint_surroundingspaces=2.0&FingerJoint_bottom_lip=0.0&FingerJoint_edge_width=1.0&FingerJoint_extra_length=0.0&FingerJoint_finger=2.0&FingerJoint_play=0.0&FingerJoint_space=2.0&FingerJoint_width=1.0&Grooved_arc_angle=120&Grooved_gap=0.1&Grooved_interleave=0&Grooved_inverse=0&Grooved_margin=0.3&Grooved_style=arc&Grooved_tri_angle=30&Grooved_width=0.4&x=130&y=110&h=50&hi=0&outside=0&outside=1&play=0.15&thickness=3.0&burn=0.1&format=svg&labels=0&labels=1&reference=100.0&tabs=0.0&qr_code=0&inner_corners=loop&spacing=0.5&debug=0&language=zh_CN&render=2
Url short: https://boxes.hackerspace-bamberg.de/SlidingDrawer?x=130&y=110&h=50&outside=0&outside=1&spacing=0.5
SettingsUrl: https://boxes.hackerspace-bamberg.de/SlidingDrawer?FingerJoint_style=rectangular&FingerJoint_surroundingspaces=2.0&FingerJoint_bottom_lip=0.0&FingerJoint_edge_width=1.0&FingerJoint_extra_length=0.0&FingerJoint_finger=2.0&FingerJoint_play=0.0&FingerJoint_space=2.0&FingerJoint_width=1.0&Grooved_arc_angle=120&Grooved_gap=0.1&Grooved_interleave=0&Grooved_inverse=0&Grooved_margin=0.3&Grooved_style=arc&Grooved_tri_angle=30&Grooved_width=0.4&x=130&y=110&h=50&hi=0&outside=0&outside=1&play=0.15&thickness=3.0&burn=0.1&format=svg&labels=0&labels=1&reference=100.0&tabs=0.0&qr_code=0&inner_corners=loop&spacing=0.5&debug=0&language=zh_CN&render=2
SettingsUrl short: https://boxes.hackerspace-bamberg.de/SlidingDrawer?x=130&y=110&h=50&outside=0&outside=1&spacing=0.5
-->
<title>SlidingDrawer</title>
<metadata>
<rdf:RDF><cc:Work>
<dc:title>Box - SlidingDrawer</dc:title>
<dc:date>2026-04-17 07:46:45</dc:date>
<dc:source>https://boxes.hackerspace-bamberg.de/SlidingDrawer?FingerJoint_style=rectangular&amp;FingerJoint_surroundingspaces=2.0&amp;FingerJoint_bottom_lip=0.0&amp;FingerJoint_edge_width=1.0&amp;FingerJoint_extra_length=0.0&amp;FingerJoint_finger=2.0&amp;FingerJoint_play=0.0&amp;FingerJoint_space=2.0&amp;FingerJoint_width=1.0&amp;Grooved_arc_angle=120&amp;Grooved_gap=0.1&amp;Grooved_interleave=0&amp;Grooved_inverse=0&amp;Grooved_margin=0.3&amp;Grooved_style=arc&amp;Grooved_tri_angle=30&amp;Grooved_width=0.4&amp;x=130&amp;y=110&amp;h=50&amp;hi=0&amp;outside=0&amp;outside=1&amp;play=0.15&amp;thickness=3.0&amp;burn=0.1&amp;format=svg&amp;labels=0&amp;labels=1&amp;reference=100.0&amp;tabs=0.0&amp;qr_code=0&amp;inner_corners=loop&amp;spacing=0.5&amp;debug=0&amp;language=zh_CN&amp;render=2</dc:source>
<dc:source>https://boxes.hackerspace-bamberg.de/SlidingDrawer?x=130&amp;y=110&amp;h=50&amp;outside=0&amp;outside=1&amp;spacing=0.5</dc:source>
<dc:description>Sliding drawer box

Created with Boxes.py (https://boxes.hackerspace-bamberg.de/)
Command line: boxes SlidingDrawer --FingerJoint_style=rectangular --FingerJoint_surroundingspaces=2.0 --FingerJoint_bottom_lip=0.0 --FingerJoint_edge_width=1.0 --FingerJoint_extra_length=0.0 --FingerJoint_finger=2.0 --FingerJoint_play=0.0 --FingerJoint_space=2.0 --FingerJoint_width=1.0 --Grooved_arc_angle=120 --Grooved_gap=0.1 --Grooved_interleave=0 --Grooved_inverse=0 --Grooved_margin=0.3 --Grooved_style=arc --Grooved_tri_angle=30 --Grooved_width=0.4 --x=130 --y=110 --h=50 --hi=0 --outside=0 --outside=1 --play=0.15 --thickness=3.0 --burn=0.1 --format=svg --labels=0 --labels=1 --reference=100.0 --tabs=0.0 --qr_code=0 --inner_corners=loop --spacing=0.5 --debug=0
Command line short: boxes SlidingDrawer --x=130 --y=110 --h=50 --outside=0 --outside=1 --spacing=0.5
Url: https://boxes.hackerspace-bamberg.de/SlidingDrawer?FingerJoint_style=rectangular&amp;FingerJoint_surroundingspaces=2.0&amp;FingerJoint_bottom_lip=0.0&amp;FingerJoint_edge_width=1.0&amp;FingerJoint_extra_length=0.0&amp;FingerJoint_finger=2.0&amp;FingerJoint_play=0.0&amp;FingerJoint_space=2.0&amp;FingerJoint_width=1.0&amp;Grooved_arc_angle=120&amp;Grooved_gap=0.1&amp;Grooved_interleave=0&amp;Grooved_inverse=0&amp;Grooved_margin=0.3&amp;Grooved_style=arc&amp;Grooved_tri_angle=30&amp;Grooved_width=0.4&amp;x=130&amp;y=110&amp;h=50&amp;hi=0&amp;outside=0&amp;outside=1&amp;play=0.15&amp;thickness=3.0&amp;burn=0.1&amp;format=svg&amp;labels=0&amp;labels=1&amp;reference=100.0&amp;tabs=0.0&amp;qr_code=0&amp;inner_corners=loop&amp;spacing=0.5&amp;debug=0&amp;language=zh_CN&amp;render=2
Url short: https://boxes.hackerspace-bamberg.de/SlidingDrawer?x=130&amp;y=110&amp;h=50&amp;outside=0&amp;outside=1&amp;spacing=0.5
SettingsUrl: https://boxes.hackerspace-bamberg.de/SlidingDrawer?FingerJoint_style=rectangular&amp;FingerJoint_surroundingspaces=2.0&amp;FingerJoint_bottom_lip=0.0&amp;FingerJoint_edge_width=1.0&amp;FingerJoint_extra_length=0.0&amp;FingerJoint_finger=2.0&amp;FingerJoint_play=0.0&amp;FingerJoint_space=2.0&amp;FingerJoint_width=1.0&amp;Grooved_arc_angle=120&amp;Grooved_gap=0.1&amp;Grooved_interleave=0&amp;Grooved_inverse=0&amp;Grooved_margin=0.3&amp;Grooved_style=arc&amp;Grooved_tri_angle=30&amp;Grooved_width=0.4&amp;x=130&amp;y=110&amp;h=50&amp;hi=0&amp;outside=0&amp;outside=1&amp;play=0.15&amp;thickness=3.0&amp;burn=0.1&amp;format=svg&amp;labels=0&amp;labels=1&amp;reference=100.0&amp;tabs=0.0&amp;qr_code=0&amp;inner_corners=loop&amp;spacing=0.5&amp;debug=0&amp;language=zh_CN&amp;render=2
SettingsUrl short: https://boxes.hackerspace-bamberg.de/SlidingDrawer?x=130&amp;y=110&amp;h=50&amp;outside=0&amp;outside=1&amp;spacing=0.5
</dc:description>
</cc:Work></rdf:RDF></metadata>
<g id="p-0" style="fill:none;stroke-linecap:round;stroke-linejoin:round;">
  <path d="M 10.100 469.700 H 110.100 V 459.700 H 10.100 V 469.700 Z" stroke="rgb(0,0,0)" stroke-width="0.20" />
  <text dominant-baseline="hanging" font-size="6px" style="font-family: sans-serif ; font-weight: normal; font-style: normal; fill: rgb(255,0,0)" text-anchor="middle" transform="matrix( 1.000 0.000 0.000 1.000 60.100 461.700 )">100.0mm, burn:0.10mm</text>
</g>
<g id="p-1" style="fill:none;stroke-linecap:round;stroke-linejoin:round;">
  <path d="M 13.100 458.000 H 20.650 C 20.705 458.000 20.750 457.955 20.750 457.900 V 455.000 C 20.750 454.900 20.650 455.000 20.750 455.000 H 26.550 C 26.650 455.000 26.550 454.900 26.550 455.000 V 457.900 C 26.550 457.955 26.595 458.000 26.650 458.000 H 32.650 C 32.705 458.000 32.750 457.955 32.750 457.900 V 455.000 C 32.750 454.900 32.650 455.000 32.750 455.000 H 38.550 C 38.650 455.000 38.550 454.900 38.550 455.000 V 457.900 C 38.550 457.955 38.595 458.000 38.650 458.000 H 44.650 C 44.705 458.000 44.750 457.955 44.750 457.900 V 455.000 C 44.750 454.900 44.650 455.000 44.750 455.000 H 50.550 C 50.650 455.000 50.550 454.900 50.550 455.000 V 457.900 C 50.550 457.955 50.595 458.000 50.650 458.000 H 56.650 C 56.705 458.000 56.750 457.955 56.750 457.900 V 455.000 C 56.750 454.900 56.650 455.000 56.750 455.000 H 62.550 C 62.650 455.000 62.550 454.900 62.550 455.000 V 457.900 C 62.550 457.955 62.595 458.000 62.650 458.000 H 68.650 C 68.705 458.000 68.750 457.955 68.750 457.900 V 455.000 C 68.750 454.900 68.650 455.000 68.750 455.000 H 74.550 C 74.650 455.000 74.550 454.900 74.550 455.000 V 457.900 C 74.550 457.955 74.595 458.000 74.650 458.000 H 80.650 C 80.705 458.000 80.750 457.955 80.750 457.900 V 455.000 C 80.750 454.900 80.650 455.000 80.750 455.000 H 86.550 C 86.650 455.000 86.550 454.900 86.550 455.000 V 457.900 C 86.550 457.955 86.595 458.000 86.650 458.000 H 92.650 C 92.705 458.000 92.750 457.955 92.750 457.900 V 455.000 C 92.750 454.900 92.650 455.000 92.750 455.000 H 98.550 C 98.650 455.000 98.550 454.900 98.550 455.000 V 457.900 C 98.550 457.955 98.595 458.000 98.650 458.000 H 104.650 C 104.705 458.000 104.750 457.955 104.750 457.900 V 455.000 C 104.750 454.900 104.650 455.000 104.750 455.000 H 110.550 C 110.650 455.000 110.550 454.900 110.550 455.000 V 457.900 C 110.550 457.955 110.595 458.000 110.650 458.000 H 116.650 C 116.705 458.000 116.750 457.955 116.750 457.900 V 455.000 C 116.750 454.900 116.650 455.000 116.750 455.000 H 122.550 C 122.650 455.000 122.550 454.900 122.550 455.000 V 457.900 C 122.550 457.955 122.595 458.000 122.650 458.000 H 130.200 H 133.200 C 133.255 458.000 133.300 457.955 133.300 457.900 V 454.900 V 443.850 C 133.300 443.795 133.255 443.750 133.200 443.750 H 130.300 C 130.200 443.750 130.300 443.850 130.300 443.750 V 437.950 C 130.300 437.850 130.200 437.950 130.300 437.950 H 133.200 C 133.255 437.950 133.300 437.905 133.300 437.850 V 431.850 C 133.300 431.795 133.255 431.750 133.200 431.750 H 130.300 C 130.200 431.750 130.300 431.850 130.300 431.750 V 425.950 C 130.300 425.850 130.200 425.950 130.300 425.950 H 133.200 C 133.255 425.950 133.300 425.905 133.300 425.850 V 414.800 C 133.300 414.745 133.255 414.700 133.200 414.700 H 130.200 H 13.100 H 10.100 C 10.045 414.700 10.000 414.745 10.000 414.800 V 425.850 C 10.000 425.905 10.045 425.950 10.100 425.950 H 13.000 C 13.100 425.950 13.000 425.850 13.000 425.950 V 431.750 C 13.000 431.850 13.100 431.750 13.000 431.750 H 10.100 C 10.045 431.750 10.000 431.795 10.000 431.850 V 437.850 C 10.000 437.905 10.045 437.950 10.100 437.950 H 13.000 C 13.100 437.950 13.000 437.850 13.000 437.950 V 443.750 C 13.000 443.850 13.100 443.750 13.000 443.750 H 10.100 C 10.045 443.750 10.000 443.795 10.000 443.850 V 454.900 V 457.900 C 10.000 457.955 10.045 458.000 10.100 458.000 H 13.100 Z" stroke="rgb(0,0,0)" stroke-width="0.20" />
  <text dominant-baseline="hanging" font-size="4px" style="font-family: sans-serif ; font-weight: normal; font-style: normal; fill: rgb(255,0,0)" text-anchor="middle" transform="matrix( 1.000 0.000 0.000 1.000 71.650 434.450 )">in box wall</text>
</g>
<g id="p-2" style="fill:none;stroke-linecap:round;stroke-linejoin:round;">
  <path d="M 137.900 455.000 H 148.850 C 148.950 455.000 148.850 454.900 148.850 455.000 V 457.900 C 148.850 457.955 148.895 458.000 148.950 458.000 H 154.950 C 155.005 458.000 155.050 457.955 155.050 457.900 V 455.000 C 155.050 454.900 154.950 455.000 155.050 455.000 H 160.850 C 160.950 455.000 160.850 454.900 160.850 455.000 V 457.900 C 160.850 457.955 160.895 458.000 160.950 458.000 H 166.950 C 167.005 458.000 167.050 457.955 167.050 457.900 V 455.000 C 167.050 454.900 166.950 455.000 167.050 455.000 H 172.850 C 172.950 455.000 172.850 454.900 172.850 455.000 V 457.900 C 172.850 457.955 172.895 458.000 172.950 458.000 H 178.950 C 179.005 458.000 179.050 457.955 179.050 457.900 V 455.000 C 179.050 454.900 178.950 455.000 179.050 455.000 H 184.850 C 184.950 455.000 184.850 454.900 184.850 455.000 V 457.900 C 184.850 457.955 184.895 458.000 184.950 458.000 H 190.950 C 191.005 458.000 191.050 457.955 191.050 457.900 V 455.000 C 191.050 454.900 190.950 455.000 191.050 455.000 H 196.850 C 196.950 455.000 196.850 454.900 196.850 455.000 V 457.900 C 196.850 457.955 196.895 458.000 196.950 458.000 H 202.950 C 203.005 458.000 203.050 457.955 203.050 457.900 V 455.000 C 203.050 454.900 202.950 455.000 203.050 455.000 H 208.850 C 208.950 455.000 208.850 454.900 208.850 455.000 V 457.900 C 208.850 457.955 208.895 458.000 208.950 458.000 H 214.950 C 215.005 458.000 215.050 457.955 215.050 457.900 V 455.000 C 215.050 454.900 214.950 455.000 215.050 455.000 H 220.850 C 220.950 455.000 220.850 454.900 220.850 455.000 V 457.900 C 220.850 457.955 220.895 458.000 220.950 458.000 H 226.950 C 227.005 458.000 227.050 457.955 227.050 457.900 V 455.000 C 227.050 454.900 226.950 455.000 227.050 455.000 H 238.000 C 238.055 455.000 238.100 454.955 238.100 454.900 V 443.950 C 238.100 443.850 238.000 443.950 238.100 443.950 H 241.000 C 241.055 443.950 241.100 443.905 241.100 443.850 V 437.850 C 241.100 437.795 241.055 437.750 241.000 437.750 H 238.100 C 238.000 437.750 238.100 437.850 238.100 437.750 V 431.950 C 238.100 431.850 238.000 431.950 238.100 431.950 H 241.000 C 241.055 431.950 241.100 431.905 241.100 431.850 V 425.850 C 241.100 425.795 241.055 425.750 241.000 425.750 H 238.100 C 238.000 425.750 238.100 425.850 238.100 425.750 V 414.800 C 238.100 414.745 238.055 414.700 238.000 414.700 H 137.900 C 137.845 414.700 137.800 414.745 137.800 414.800 V 425.750 C 137.800 425.850 137.900 425.750 137.800 425.750 H 134.900 C 134.845 425.750 134.800 425.795 134.800 425.850 V 431.850 C 134.800 431.905 134.845 431.950 134.900 431.950 H 137.800 C 137.900 431.950 137.800 431.850 137.800 431.950 V 437.750 C 137.800 437.850 137.900 437.750 137.800 437.750 H 134.900 C 134.845 437.750 134.800 437.795 134.800 437.850 V 443.850 C 134.800 443.905 134.845 443.950 134.900 443.950 H 137.800 C 137.900 443.950 137.800 443.850 137.800 443.950 V 454.900 C 137.800 454.955 137.845 455.000 137.900 455.000 Z" stroke="rgb(0,0,0)" stroke-width="0.20" />
  <text dominant-baseline="hanging" font-size="4px" style="font-family: sans-serif ; font-weight: normal; font-style: normal; fill: rgb(255,0,0)" text-anchor="middle" transform="matrix( 1.000 0.000 0.000 1.000 187.950 434.450 )">in box wall</text>
</g>
<g id="p-3" style="fill:none;stroke-linecap:round;stroke-linejoin:round;">
  <path d="M 137.900 410.200 H 148.850 C 148.950 410.200 148.850 410.100 148.850 410.200 V 413.100 C 148.850 413.155 148.895 413.200 148.950 413.200 H 154.950 C 155.005 413.200 155.050 413.155 155.050 413.100 V 410.200 C 155.050 410.100 154.950 410.200 155.050 410.200 H 160.850 C 160.950 410.200 160.850 410.100 160.850 410.200 V 413.100 C 160.850 413.155 160.895 413.200 160.950 413.200 H 166.950 C 167.005 413.200 167.050 413.155 167.050 413.100 V 410.200 C 167.050 410.100 166.950 410.200 167.050 410.200 H 172.850 C 172.950 410.200 172.850 410.100 172.850 410.200 V 413.100 C 172.850 413.155 172.895 413.200 172.950 413.200 H 178.950 C 179.005 413.200 179.050 413.155 179.050 413.100 V 410.200 C 179.050 410.100 178.950 410.200 179.050 410.200 H 184.850 C 184.950 410.200 184.850 410.100 184.850 410.200 V 413.100 C 184.850 413.155 184.895 413.200 184.950 413.200 H 190.950 C 191.005 413.200 191.050 413.155 191.050 413.100 V 410.200 C 191.050 410.100 190.950 410.200 191.050 410.200 H 196.850 C 196.950 410.200 196.850 410.100 196.850 410.200 V 413.100 C 196.850 413.155 196.895 413.200 196.950 413.200 H 202.950 C 203.005 413.200 203.050 413.155 203.050 413.100 V 410.200 C 203.050 410.100 202.950 410.200 203.050 410.200 H 208.850 C 208.950 410.200 208.850 410.100 208.850 410.200 V 413.100 C 208.850 413.155 208.895 413.200 208.950 413.200 H 214.950 C 215.005 413.200 215.050 413.155 215.050 413.100 V 410.200 C 215.050 410.100 214.950 410.200 215.050 410.200 H 220.850 C 220.950 410.200 220.850 410.100 220.850 410.200 V 413.100 C 220.850 413.155 220.895 413.200 220.950 413.200 H 226.950 C 227.005 413.200 227.050 413.155 227.050 413.100 V 410.200 C 227.050 410.100 226.950 410.200 227.050 410.200 H 238.000 C 238.055 410.200 238.100 410.155 238.100 410.100 V 399.150 C 238.100 399.050 238.000 399.150 238.100 399.150 H 241.000 C 241.055 399.150 241.100 399.105 241.100 399.050 V 393.050 C 241.100 392.995 241.055 392.950 241.000 392.950 H 238.100 C 238.000 392.950 238.100 393.050 238.100 392.950 V 387.150 C 238.100 387.050 238.000 387.150 238.100 387.150 H 241.000 C 241.055 387.150 241.100 387.105 241.100 387.050 V 381.050 C 241.100 380.995 241.055 380.950 241.000 380.950 H 238.100 C 238.000 380.950 238.100 381.050 238.100 380.950 V 370.000 C 238.100 369.945 238.055 369.900 238.000 369.900 H 137.900 C 137.845 369.900 137.800 369.945 137.800 370.000 V 380.950 C 137.800 381.050 137.900 380.950 137.800 380.950 H 134.900 C 134.845 380.950 134.800 380.995 134.800 381.050 V 387.050 C 134.800 387.105 134.845 387.150 134.900 387.150 H 137.800 C 137.900 387.150 137.800 387.050 137.800 387.150 V 392.950 C 137.800 393.050 137.900 392.950 137.800 392.950 H 134.900 C 134.845 392.950 134.800 392.995 134.800 393.050 V 399.050 C 134.800 399.105 134.845 399.150 134.900 399.150 H 137.800 C 137.900 399.150 137.800 399.050 137.800 399.150 V 410.100 C 137.800 410.155 137.845 410.200 137.900 410.200 Z" stroke="rgb(0,0,0)" stroke-width="0.20" />
  <text dominant-baseline="hanging" font-size="4px" style="font-family: sans-serif ; font-weight: normal; font-style: normal; fill: rgb(255,0,0)" text-anchor="middle" transform="matrix( 1.000 0.000 0.000 1.000 187.950 389.650 )">in box wall</text>
</g>
<g id="p-4" style="fill:none;stroke-linecap:round;stroke-linejoin:round;">
  <path d="M 13.100 413.200 H 20.650 C 20.705 413.200 20.750 413.155 20.750 413.100 V 410.200 C 20.750 410.100 20.650 410.200 20.750 410.200 H 26.550 C 26.650 410.200 26.550 410.100 26.550 410.200 V 413.100 C 26.550 413.155 26.595 413.200 26.650 413.200 H 32.650 C 32.705 413.200 32.750 413.155 32.750 413.100 V 410.200 C 32.750 410.100 32.650 410.200 32.750 410.200 H 38.550 C 38.650 410.200 38.550 410.100 38.550 410.200 V 413.100 C 38.550 413.155 38.595 413.200 38.650 413.200 H 44.650 C 44.705 413.200 44.750 413.155 44.750 413.100 V 410.200 C 44.750 410.100 44.650 410.200 44.750 410.200 H 50.550 C 50.650 410.200 50.550 410.100 50.550 410.200 V 413.100 C 50.550 413.155 50.595 413.200 50.650 413.200 H 56.650 C 56.705 413.200 56.750 413.155 56.750 413.100 V 410.200 C 56.750 410.100 56.650 410.200 56.750 410.200 H 62.550 C 62.650 410.200 62.550 410.100 62.550 410.200 V 413.100 C 62.550 413.155 62.595 413.200 62.650 413.200 H 68.650 C 68.705 413.200 68.750 413.155 68.750 413.100 V 410.200 C 68.750 410.100 68.650 410.200 68.750 410.200 H 74.550 C 74.650 410.200 74.550 410.100 74.550 410.200 V 413.100 C 74.550 413.155 74.595 413.200 74.650 413.200 H 80.650 C 80.705 413.200 80.750 413.155 80.750 413.100 V 410.200 C 80.750 410.100 80.650 410.200 80.750 410.200 H 86.550 C 86.650 410.200 86.550 410.100 86.550 410.200 V 413.100 C 86.550 413.155 86.595 413.200 86.650 413.200 H 92.650 C 92.705 413.200 92.750 413.155 92.750 413.100 V 410.200 C 92.750 410.100 92.650 410.200 92.750 410.200 H 98.550 C 98.650 410.200 98.550 410.100 98.550 410.200 V 413.100 C 98.550 413.155 98.595 413.200 98.650 413.200 H 104.650 C 104.705 413.200 104.750 413.155 104.750 413.100 V 410.200 C 104.750 410.100 104.650 410.200 104.750 410.200 H 110.550 C 110.650 410.200 110.550 410.100 110.550 410.200 V 413.100 C 110.550 413.155 110.595 413.200 110.650 413.200 H 116.650 C 116.705 413.200 116.750 413.155 116.750 413.100 V 410.200 C 116.750 410.100 116.650 410.200 116.750 410.200 H 122.550 C 122.650 410.200 122.550 410.100 122.550 410.200 V 413.100 C 122.550 413.155 122.595 413.200 122.650 413.200 H 130.200 H 133.200 C 133.255 413.200 133.300 413.155 133.300 413.100 V 410.100 V 399.050 C 133.300 398.995 133.255 398.950 133.200 398.950 H 130.300 C 130.200 398.950 130.300 399.050 130.300 398.950 V 393.150 C 130.300 393.050 130.200 393.150 130.300 393.150 H 133.200 C 133.255 393.150 133.300 393.105 133.300 393.050 V 387.050 C 133.300 386.995 133.255 386.950 133.200 386.950 H 130.300 C 130.200 386.950 130.300 387.050 130.300 386.950 V 381.150 C 130.300 381.050 130.200 381.150 130.300 381.150 H 133.200 C 133.255 381.150 133.300 381.105 133.300 381.050 V 370.000 C 133.300 369.945 133.255 369.900 133.200 369.900 H 130.200 H 95.070 C 95.034 369.900 95.001 369.919 94.983 369.950 C 92.619 374.046 89.217 377.447 85.122 379.812 C 81.026 382.177 76.379 383.422 71.650 383.422 C 66.921 383.422 62.274 382.177 58.178 379.812 C 54.083 377.447 50.681 374.046 48.317 369.950 C 48.299 369.919 48.266 369.900 48.230 369.900 H 13.100 H 10.100 C 10.045 369.900 10.000 369.945 10.000 370.000 V 381.050 C 10.000 381.105 10.045 381.150 10.100 381.150 H 13.000 C 13.100 381.150 13.000 381.050 13.000 381.150 V 386.950 C 13.000 387.050 13.100 386.950 13.000 386.950 H 10.100 C 10.045 386.950 10.000 386.995 10.000 387.050 V 393.050 C 10.000 393.105 10.045 393.150 10.100 393.150 H 13.000 C 13.100 393.150 13.000 393.050 13.000 393.150 V 398.950 C 13.000 399.050 13.100 398.950 13.000 398.950 H 10.100 C 10.045 398.950 10.000 398.995 10.000 399.050 V 410.100 V 413.100 C 10.000 413.155 10.045 413.200 10.100 413.200 H 13.100 Z" stroke="rgb(0,0,0)" stroke-width="0.20" />
  <text dominant-baseline="hanging" font-size="4px" style="font-family: sans-serif ; font-weight: normal; font-style: normal; fill: rgb(255,0,0)" text-anchor="middle" transform="matrix( 1.000 0.000 0.000 1.000 71.650 389.650 )">in box wall</text>
</g>
<g id="p-5" style="fill:none;stroke-linecap:round;stroke-linejoin:round;">
  <path d="M 13.100 368.400 H 24.150 C 24.205 368.400 24.250 368.355 24.250 368.300 V 365.400 C 24.250 365.300 24.150 365.400 24.250 365.400 H 30.050 C 30.150 365.400 30.050 365.300 30.050 365.400 V 368.300 C 30.050 368.355 30.095 368.400 30.150 368.400 H 36.150 C 36.205 368.400 36.250 368.355 36.250 368.300 V 365.400 C 36.250 365.300 36.150 365.400 36.250 365.400 H 42.050 C 42.150 365.400 42.050 365.300 42.050 365.400 V 368.300 C 42.050 368.355 42.095 368.400 42.150 368.400 H 48.150 C 48.205 368.400 48.250 368.355 48.250 368.300 V 365.400 C 48.250 365.300 48.150 365.400 48.250 365.400 H 54.050 C 54.150 365.400 54.050 365.300 54.050 365.400 V 368.300 C 54.050 368.355 54.095 368.400 54.150 368.400 H 60.150 C 60.205 368.400 60.250 368.355 60.250 368.300 V 365.400 C 60.250 365.300 60.150 365.400 60.250 365.400 H 66.050 C 66.150 365.400 66.050 365.300 66.050 365.400 V 368.300 C 66.050 368.355 66.095 368.400 66.150 368.400 H 72.150 C 72.205 368.400 72.250 368.355 72.250 368.300 V 365.400 C 72.250 365.300 72.150 365.400 72.250 365.400 H 78.050 C 78.150 365.400 78.050 365.300 78.050 365.400 V 368.300 C 78.050 368.355 78.095 368.400 78.150 368.400 H 84.150 C 84.205 368.400 84.250 368.355 84.250 368.300 V 365.400 C 84.250 365.300 84.150 365.400 84.250 365.400 H 90.050 C 90.150 365.400 90.050 365.300 90.050 365.400 V 368.300 C 90.050 368.355 90.095 368.400 90.150 368.400 H 96.150 C 96.205 368.400 96.250 368.355 96.250 368.300 V 365.400 C 96.250 365.300 96.150 365.400 96.250 365.400 H 102.050 C 102.150 365.400 102.050 365.300 102.050 365.400 V 368.300 C 102.050 368.355 102.095 368.400 102.150 368.400 H 113.200 C 113.255 368.400 113.300 368.355 113.300 368.300 V 365.300 V 357.850 C 113.300 357.750 113.200 357.850 113.300 357.850 H 116.200 C 116.255 357.850 116.300 357.805 116.300 357.750 V 351.750 C 116.300 351.695 116.255 351.650 116.200 351.650 H 113.300 C 113.200 351.650 113.300 351.750 113.300 351.650 V 345.850 C 113.300 345.750 113.200 345.850 113.300 345.850 H 116.200 C 116.255 345.850 116.300 345.805 116.300 345.750 V 339.750 C 116.300 339.695 116.255 339.650 116.200 339.650 H 113.300 C 113.200 339.650 113.300 339.750 113.300 339.650 V 333.850 C 113.300 333.750 113.200 333.850 113.300 333.850 H 116.200 C 116.255 333.850 116.300 333.805 116.300 333.750 V 327.750 C 116.300 327.695 116.255 327.650 116.200 327.650 H 113.300 C 113.200 327.650 113.300 327.750 113.300 327.650 V 321.850 C 113.300 321.750 113.200 321.850 113.300 321.850 H 116.200 C 116.255 321.850 116.300 321.805 116.300 321.750 V 315.750 C 116.300 315.695 116.255 315.650 116.200 315.650 H 113.300 C 113.200 315.650 113.300 315.750 113.300 315.650 V 309.850 C 113.300 309.750 113.200 309.850 113.300 309.850 H 116.200 C 116.255 309.850 116.300 309.805 116.300 309.750 V 303.750 C 116.300 303.695 116.255 303.650 116.200 303.650 H 113.300 C 113.200 303.650 113.300 303.750 113.300 303.650 V 297.850 C 113.300 297.750 113.200 297.850 113.300 297.850 H 116.200 C 116.255 297.850 116.300 297.805 116.300 297.750 V 291.750 C 116.300 291.695 116.255 291.650 116.200 291.650 H 113.300 C 113.200 291.650 113.300 291.750 113.300 291.650 V 285.850 C 113.300 285.750 113.200 285.850 113.300 285.850 H 116.200 C 116.255 285.850 116.300 285.805 116.300 285.750 V 279.750 C 116.300 279.695 116.255 279.650 116.200 279.650 H 113.300 C 113.200 279.650 113.300 279.750 113.300 279.650 V 273.850 C 113.300 273.750 113.200 273.850 113.300 273.850 H 116.200 C 116.255 273.850 116.300 273.805 116.300 273.750 V 267.750 C 116.300 267.695 116.255 267.650 116.200 267.650 H 113.300 C 113.200 267.650 113.300 267.750 113.300 267.650 V 261.850 C 113.300 261.750 113.200 261.850 113.300 261.850 H 116.200 C 116.255 261.850 116.300 261.805 116.300 261.750 V 255.750 C 116.300 255.695 116.255 255.650 116.200 255.650 H 113.300 C 113.200 255.650 113.300 255.750 113.300 255.650 V 248.200 V 245.200 C 113.300 245.145 113.255 245.100 113.200 245.100 H 102.150 C 102.095 245.100 102.050 245.145 102.050 245.200 V 248.100 C 102.050 248.200 102.150 248.100 102.050 248.100 H 96.250 C 96.150 248.100 96.250 248.200 96.250 248.100 V 245.200 C 96.250 245.145 96.205 245.100 96.150 245.100 H 90.150 C 90.095 245.100 90.050 245.145 90.050 245.200 V 248.100 C 90.050 248.200 90.150 248.100 90.050 248.100 H 84.250 C 84.150 248.100 84.250 248.200 84.250 248.100 V 245.200 C 84.250 245.145 84.205 245.100 84.150 245.100 H 78.150 C 78.095 245.100 78.050 245.145 78.050 245.200 V 248.100 C 78.050 248.200 78.150 248.100 78.050 248.100 H 72.250 C 72.150 248.100 72.250 248.200 72.250 248.100 V 245.200 C 72.250 245.145 72.205 245.100 72.150 245.100 H 66.150 C 66.095 245.100 66.050 245.145 66.050 245.200 V 248.100 C 66.050 248.200 66.150 248.100 66.050 248.100 H 60.250 C 60.150 248.100 60.250 248.200 60.250 248.100 V 245.200 C 60.250 245.145 60.205 245.100 60.150 245.100 H 54.150 C 54.095 245.100 54.050 245.145 54.050 245.200 V 248.100 C 54.050 248.200 54.150 248.100 54.050 248.100 H 48.250 C 48.150 248.100 48.250 248.200 48.250 248.100 V 245.200 C 48.250 245.145 48.205 245.100 48.150 245.100 H 42.150 C 42.095 245.100 42.050 245.145 42.050 245.200 V 248.100 C 42.050 248.200 42.150 248.100 42.050 248.100 H 36.250 C 36.150 248.100 36.250 248.200 36.250 248.100 V 245.200 C 36.250 245.145 36.205 245.100 36.150 245.100 H 30.150 C 30.095 245.100 30.050 245.145 30.050 245.200 V 248.100 C 30.050 248.200 30.150 248.100 30.050 248.100 H 24.250 C 24.150 248.100 24.250 248.200 24.250 248.100 V 245.200 C 24.250 245.145 24.205 245.100 24.150 245.100 H 13.100 C 13.045 245.100 13.000 245.145 13.000 245.200 V 248.200 V 255.650 C 13.000 255.750 13.100 255.650 13.000 255.650 H 10.100 C 10.045 255.650 10.000 255.695 10.000 255.750 V 261.750 C 10.000 261.805 10.045 261.850 10.100 261.850 H 13.000 C 13.100 261.850 13.000 261.750 13.000 261.850 V 267.650 C 13.000 267.750 13.100 267.650 13.000 267.650 H 10.100 C 10.045 267.650 10.000 267.695 10.000 267.750 V 273.750 C 10.000 273.805 10.045 273.850 10.100 273.850 H 13.000 C 13.100 273.850 13.000 273.750 13.000 273.850 V 279.650 C 13.000 279.750 13.100 279.650 13.000 279.650 H 10.100 C 10.045 279.650 10.000 279.695 10.000 279.750 V 285.750 C 10.000 285.805 10.045 285.850 10.100 285.850 H 13.000 C 13.100 285.850 13.000 285.750 13.000 285.850 V 291.650 C 13.000 291.750 13.100 291.650 13.000 291.650 H 10.100 C 10.045 291.650 10.000 291.695 10.000 291.750 V 297.750 C 10.000 297.805 10.045 297.850 10.100 297.850 H 13.000 C 13.100 297.850 13.000 297.750 13.000 297.850 V 303.650 C 13.000 303.750 13.100 303.650 13.000 303.650 H 10.100 C 10.045 303.650 10.000 303.695 10.000 303.750 V 309.750 C 10.000 309.805 10.045 309.850 10.100 309.850 H 13.000 C 13.100 309.850 13.000 309.750 13.000 309.850 V 315.650 C 13.000 315.750 13.100 315.650 13.000 315.650 H 10.100 C 10.045 315.650 10.000 315.695 10.000 315.750 V 321.750 C 10.000 321.805 10.045 321.850 10.100 321.850 H 13.000 C 13.100 321.850 13.000 321.750 13.000 321.850 V 327.650 C 13.000 327.750 13.100 327.650 13.000 327.650 H 10.100 C 10.045 327.650 10.000 327.695 10.000 327.750 V 333.750 C 10.000 333.805 10.045 333.850 10.100 333.850 H 13.000 C 13.100 333.850 13.000 333.750 13.000 333.850 V 339.650 C 13.000 339.750 13.100 339.650 13.000 339.650 H 10.100 C 10.045 339.650 10.000 339.695 10.000 339.750 V 345.750 C 10.000 345.805 10.045 345.850 10.100 345.850 H 13.000 C 13.100 345.850 13.000 345.750 13.000 345.850 V 351.650 C 13.000 351.750 13.100 351.650 13.000 351.650 H 10.100 C 10.045 351.650 10.000 351.695 10.000 351.750 V 357.750 C 10.000 357.805 10.045 357.850 10.100 357.850 H 13.000 C 13.100 357.850 13.000 357.750 13.000 357.850 V 365.300 V 368.300 C 13.000 368.355 13.045 368.400 13.100 368.400 Z" stroke="rgb(0,0,0)" stroke-width="0.20" />
  <text dominant-baseline="hanging" font-size="4px" style="font-family: sans-serif ; font-weight: normal; font-style: normal; fill: rgb(255,0,0)" text-anchor="middle" transform="matrix( 1.000 0.000 0.000 1.000 63.150 304.850 )">in box bottom</text>
</g>
<g id="p-6" style="fill:none;stroke-linecap:round;stroke-linejoin:round;">
  <path d="M 10.100 243.600 H 18.600 C 18.655 243.600 18.700 243.555 18.700 243.500 V 240.600 C 18.700 240.500 18.600 240.600 18.700 240.600 H 24.500 C 24.600 240.600 24.500 240.500 24.500 240.600 V 243.500 C 24.500 243.555 24.545 243.600 24.600 243.600 H 30.600 C 30.655 243.600 30.700 243.555 30.700 243.500 V 240.600 C 30.700 240.500 30.600 240.600 30.700 240.600 H 36.500 C 36.600 240.600 36.500 240.500 36.500 240.600 V 243.500 C 36.500 243.555 36.545 243.600 36.600 243.600 H 42.600 C 42.655 243.600 42.700 243.555 42.700 243.500 V 240.600 C 42.700 240.500 42.600 240.600 42.700 240.600 H 48.500 C 48.600 240.600 48.500 240.500 48.500 240.600 V 243.500 C 48.500 243.555 48.545 243.600 48.600 243.600 H 54.600 C 54.655 243.600 54.700 243.555 54.700 243.500 V 240.600 C 54.700 240.500 54.600 240.600 54.700 240.600 H 60.500 C 60.600 240.600 60.500 240.500 60.500 240.600 V 243.500 C 60.500 243.555 60.545 243.600 60.600 243.600 H 66.600 C 66.655 243.600 66.700 243.555 66.700 243.500 V 240.600 C 66.700 240.500 66.600 240.600 66.700 240.600 H 72.500 C 72.600 240.600 72.500 240.500 72.500 240.600 V 243.500 C 72.500 243.555 72.545 243.600 72.600 243.600 H 78.600 C 78.655 243.600 78.700 243.555 78.700 243.500 V 240.600 C 78.700 240.500 78.600 240.600 78.700 240.600 H 84.500 C 84.600 240.600 84.500 240.500 84.500 240.600 V 243.500 C 84.500 243.555 84.545 243.600 84.600 243.600 H 90.600 C 90.655 243.600 90.700 243.555 90.700 243.500 V 240.600 C 90.700 240.500 90.600 240.600 90.700 240.600 H 96.500 C 96.600 240.600 96.500 240.500 96.500 240.600 V 243.500 C 96.500 243.555 96.545 243.600 96.600 243.600 H 102.600 C 102.655 243.600 102.700 243.555 102.700 243.500 V 240.600 C 102.700 240.500 102.600 240.600 102.700 240.600 H 108.500 C 108.600 240.600 108.500 240.500 108.500 240.600 V 243.500 C 108.500 243.555 108.545 243.600 108.600 243.600 H 117.100 H 120.100 C 120.155 243.600 120.200 243.555 120.200 243.500 V 240.500 V 229.500 C 120.200 229.445 120.155 229.400 120.100 229.400 H 117.200 C 117.100 229.400 117.200 229.500 117.200 229.400 V 223.600 C 117.200 223.500 117.100 223.600 117.200 223.600 H 120.100 C 120.155 223.600 120.200 223.555 120.200 223.500 V 217.500 C 120.200 217.445 120.155 217.400 120.100 217.400 H 117.200 C 117.100 217.400 117.200 217.500 117.200 217.400 V 211.600 C 117.200 211.500 117.100 211.600 117.200 211.600 H 120.100 C 120.155 211.600 120.200 211.555 120.200 211.500 V 205.500 C 120.200 205.445 120.155 205.400 120.100 205.400 H 117.200 C 117.100 205.400 117.200 205.500 117.200 205.400 V 199.600 C 117.200 199.500 117.100 199.600 117.200 199.600 H 120.100 C 120.155 199.600 120.200 199.555 120.200 199.500 V 193.500 C 120.200 193.445 120.155 193.400 120.100 193.400 H 117.200 C 117.100 193.400 117.200 193.500 117.200 193.400 V 187.600 C 117.200 187.500 117.100 187.600 117.200 187.600 H 120.100 C 120.155 187.600 120.200 187.555 120.200 187.500 V 181.500 C 120.200 181.445 120.155 181.400 120.100 181.400 H 117.200 C 117.100 181.400 117.200 181.500 117.200 181.400 V 175.600 C 117.200 175.500 117.100 175.600 117.200 175.600 H 120.100 C 120.155 175.600 120.200 175.555 120.200 175.500 V 169.500 C 120.200 169.445 120.155 169.400 120.100 169.400 H 117.200 C 117.100 169.400 117.200 169.500 117.200 169.400 V 163.600 C 117.200 163.500 117.100 163.600 117.200 163.600 H 120.100 C 120.155 163.600 120.200 163.555 120.200 163.500 V 157.500 C 120.200 157.445 120.155 157.400 120.100 157.400 H 117.200 C 117.100 157.400 117.200 157.500 117.200 157.400 V 151.600 C 117.200 151.500 117.100 151.600 117.200 151.600 H 120.100 C 120.155 151.600 120.200 151.555 120.200 151.500 V 145.500 C 120.200 145.445 120.155 145.400 120.100 145.400 H 117.200 C 117.100 145.400 117.200 145.500 117.200 145.400 V 139.600 C 117.200 139.500 117.100 139.600 117.200 139.600 H 120.100 C 120.155 139.600 120.200 139.555 120.200 139.500 V 133.500 C 120.200 133.445 120.155 133.400 120.100 133.400 H 117.200 C 117.100 133.400 117.200 133.500 117.200 133.400 V 127.600 C 117.200 127.500 117.100 127.600 117.200 127.600 H 120.100 C 120.155 127.600 120.200 127.555 120.200 127.500 V 116.500 V 113.500 C 120.200 113.445 120.155 113.400 120.100 113.400 H 117.100 H 108.600 C 108.545 113.400 108.500 113.445 108.500 113.500 V 116.400 C 108.500 116.500 108.600 116.400 108.500 116.400 H 102.700 C 102.600 116.400 102.700 116.500 102.700 116.400 V 113.500 C 102.700 113.445 102.655 113.400 102.600 113.400 H 96.600 C 96.545 113.400 96.500 113.445 96.500 113.500 V 116.400 C 96.500 116.500 96.600 116.400 96.500 116.400 H 90.700 C 90.600 116.400 90.700 116.500 90.700 116.400 V 113.500 C 90.700 113.445 90.655 113.400 90.600 113.400 H 84.600 C 84.545 113.400 84.500 113.445 84.500 113.500 V 116.400 C 84.500 116.500 84.600 116.400 84.500 116.400 H 78.700 C 78.600 116.400 78.700 116.500 78.700 116.400 V 113.500 C 78.700 113.445 78.655 113.400 78.600 113.400 H 72.600 C 72.545 113.400 72.500 113.445 72.500 113.500 V 116.400 C 72.500 116.500 72.600 116.400 72.500 116.400 H 66.700 C 66.600 116.400 66.700 116.500 66.700 116.400 V 113.500 C 66.700 113.445 66.655 113.400 66.600 113.400 H 60.600 C 60.545 113.400 60.500 113.445 60.500 113.500 V 116.400 C 60.500 116.500 60.600 116.400 60.500 116.400 H 54.700 C 54.600 116.400 54.700 116.500 54.700 116.400 V 113.500 C 54.700 113.445 54.655 113.400 54.600 113.400 H 48.600 C 48.545 113.400 48.500 113.445 48.500 113.500 V 116.400 C 48.500 116.500 48.600 116.400 48.500 116.400 H 42.700 C 42.600 116.400 42.700 116.500 42.700 116.400 V 113.500 C 42.700 113.445 42.655 113.400 42.600 113.400 H 36.600 C 36.545 113.400 36.500 113.445 36.500 113.500 V 116.400 C 36.500 116.500 36.600 116.400 36.500 116.400 H 30.700 C 30.600 116.400 30.700 116.500 30.700 116.400 V 113.500 C 30.700 113.445 30.655 113.400 30.600 113.400 H 24.600 C 24.545 113.400 24.500 113.445 24.500 113.500 V 116.400 C 24.500 116.500 24.600 116.400 24.500 116.400 H 18.700 C 18.600 116.400 18.700 116.500 18.700 116.400 V 113.500 C 18.700 113.445 18.655 113.400 18.600 113.400 H 10.100 C 10.045 113.400 10.000 113.445 10.000 113.500 V 116.500 V 240.500 V 243.500 C 10.000 243.555 10.045 243.600 10.100 243.600 Z" stroke="rgb(0,0,0)" stroke-width="0.20" />
  <text dominant-baseline="hanging" font-size="4px" style="font-family: sans-serif ; font-weight: normal; font-style: normal; fill: rgb(255,0,0)" text-anchor="middle" transform="matrix( 1.000 0.000 0.000 1.000 65.100 176.600 )">out box bottom</text>
</g>
<g id="p-7" style="fill:none;stroke-linecap:round;stroke-linejoin:round;">
  <path d="M 121.800 243.600 H 130.300 C 130.355 243.600 130.400 243.555 130.400 243.500 V 240.600 C 130.400 240.500 130.300 240.600 130.400 240.600 H 136.200 C 136.300 240.600 136.200 240.500 136.200 240.600 V 243.500 C 136.200 243.555 136.245 243.600 136.300 243.600 H 142.300 C 142.355 243.600 142.400 243.555 142.400 243.500 V 240.600 C 142.400 240.500 142.300 240.600 142.400 240.600 H 148.200 C 148.300 240.600 148.200 240.500 148.200 240.600 V 243.500 C 148.200 243.555 148.245 243.600 148.300 243.600 H 154.300 C 154.355 243.600 154.400 243.555 154.400 243.500 V 240.600 C 154.400 240.500 154.300 240.600 154.400 240.600 H 160.200 C 160.300 240.600 160.200 240.500 160.200 240.600 V 243.500 C 160.200 243.555 160.245 243.600 160.300 243.600 H 166.300 C 166.355 243.600 166.400 243.555 166.400 243.500 V 240.600 C 166.400 240.500 166.300 240.600 166.400 240.600 H 172.200 C 172.300 240.600 172.200 240.500 172.200 240.600 V 243.500 C 172.200 243.555 172.245 243.600 172.300 243.600 H 178.300 C 178.355 243.600 178.400 243.555 178.400 243.500 V 240.600 C 178.400 240.500 178.300 240.600 178.400 240.600 H 184.200 C 184.300 240.600 184.200 240.500 184.200 240.600 V 243.500 C 184.200 243.555 184.245 243.600 184.300 243.600 H 190.300 C 190.355 243.600 190.400 243.555 190.400 243.500 V 240.600 C 190.400 240.500 190.300 240.600 190.400 240.600 H 196.200 C 196.300 240.600 196.200 240.500 196.200 240.600 V 243.500 C 196.200 243.555 196.245 243.600 196.300 243.600 H 202.300 C 202.355 243.600 202.400 243.555 202.400 243.500 V 240.600 C 202.400 240.500 202.300 240.600 202.400 240.600 H 208.200 C 208.300 240.600 208.200 240.500 208.200 240.600 V 243.500 C 208.200 243.555 208.245 243.600 208.300 243.600 H 214.300 C 214.355 243.600 214.400 243.555 214.400 243.500 V 240.600 C 214.400 240.500 214.300 240.600 214.400 240.600 H 220.200 C 220.300 240.600 220.200 240.500 220.200 240.600 V 243.500 C 220.200 243.555 220.245 243.600 220.300 243.600 H 228.800 H 231.800 C 231.855 243.600 231.900 243.555 231.900 243.500 V 240.500 V 229.500 C 231.900 229.445 231.855 229.400 231.800 229.400 H 228.900 C 228.800 229.400 228.900 229.500 228.900 229.400 V 223.600 C 228.900 223.500 228.800 223.600 228.900 223.600 H 231.800 C 231.855 223.600 231.900 223.555 231.900 223.500 V 217.500 C 231.900 217.445 231.855 217.400 231.800 217.400 H 228.900 C 228.800 217.400 228.900 217.500 228.900 217.400 V 211.600 C 228.900 211.500 228.800 211.600 228.900 211.600 H 231.800 C 231.855 211.600 231.900 211.555 231.900 211.500 V 205.500 C 231.900 205.445 231.855 205.400 231.800 205.400 H 228.900 C 228.800 205.400 228.900 205.500 228.900 205.400 V 199.600 C 228.900 199.500 228.800 199.600 228.900 199.600 H 231.800 C 231.855 199.600 231.900 199.555 231.900 199.500 V 193.500 C 231.900 193.445 231.855 193.400 231.800 193.400 H 228.900 C 228.800 193.400 228.900 193.500 228.900 193.400 V 187.600 C 228.900 187.500 228.800 187.600 228.900 187.600 H 231.800 C 231.855 187.600 231.900 187.555 231.900 187.500 V 181.500 C 231.900 181.445 231.855 181.400 231.800 181.400 H 228.900 C 228.800 181.400 228.900 181.500 228.900 181.400 V 175.600 C 228.900 175.500 228.800 175.600 228.900 175.600 H 231.800 C 231.855 175.600 231.900 175.555 231.900 175.500 V 169.500 C 231.900 169.445 231.855 169.400 231.800 169.400 H 228.900 C 228.800 169.400 228.900 169.500 228.900 169.400 V 163.600 C 228.900 163.500 228.800 163.600 228.900 163.600 H 231.800 C 231.855 163.600 231.900 163.555 231.900 163.500 V 157.500 C 231.900 157.445 231.855 157.400 231.800 157.400 H 228.900 C 228.800 157.400 228.900 157.500 228.900 157.400 V 151.600 C 228.900 151.500 228.800 151.600 228.900 151.600 H 231.800 C 231.855 151.600 231.900 151.555 231.900 151.500 V 145.500 C 231.900 145.445 231.855 145.400 231.800 145.400 H 228.900 C 228.800 145.400 228.900 145.500 228.900 145.400 V 139.600 C 228.900 139.500 228.800 139.600 228.900 139.600 H 231.800 C 231.855 139.600 231.900 139.555 231.900 139.500 V 133.500 C 231.900 133.445 231.855 133.400 231.800 133.400 H 228.900 C 228.800 133.400 228.900 133.500 228.900 133.400 V 127.600 C 228.900 127.500 228.800 127.600 228.900 127.600 H 231.800 C 231.855 127.600 231.900 127.555 231.900 127.500 V 116.500 V 113.500 C 231.900 113.445 231.855 113.400 231.800 113.400 H 228.800 H 220.300 C 220.245 113.400 220.200 113.445 220.200 113.500 V 116.400 C 220.200 116.500 220.300 116.400 220.200 116.400 H 214.400 C 214.300 116.400 214.400 116.500 214.400 116.400 V 113.500 C 214.400 113.445 214.355 113.400 214.300 113.400 H 208.300 C 208.245 113.400 208.200 113.445 208.200 113.500 V 116.400 C 208.200 116.500 208.300 116.400 208.200 116.400 H 202.400 C 202.300 116.400 202.400 116.500 202.400 116.400 V 113.500 C 202.400 113.445 202.355 113.400 202.300 113.400 H 196.300 C 196.245 113.400 196.200 113.445 196.200 113.500 V 116.400 C 196.200 116.500 196.300 116.400 196.200 116.400 H 190.400 C 190.300 116.400 190.400 116.500 190.400 116.400 V 113.500 C 190.400 113.445 190.355 113.400 190.300 113.400 H 184.300 C 184.245 113.400 184.200 113.445 184.200 113.500 V 116.400 C 184.200 116.500 184.300 116.400 184.200 116.400 H 178.400 C 178.300 116.400 178.400 116.500 178.400 116.400 V 113.500 C 178.400 113.445 178.355 113.400 178.300 113.400 H 172.300 C 172.245 113.400 172.200 113.445 172.200 113.500 V 116.400 C 172.200 116.500 172.300 116.400 172.200 116.400 H 166.400 C 166.300 116.400 166.400 116.500 166.400 116.400 V 113.500 C 166.400 113.445 166.355 113.400 166.300 113.400 H 160.300 C 160.245 113.400 160.200 113.445 160.200 113.500 V 116.400 C 160.200 116.500 160.300 116.400 160.200 116.400 H 154.400 C 154.300 116.400 154.400 116.500 154.400 116.400 V 113.500 C 154.400 113.445 154.355 113.400 154.300 113.400 H 148.300 C 148.245 113.400 148.200 113.445 148.200 113.500 V 116.400 C 148.200 116.500 148.300 116.400 148.200 116.400 H 142.400 C 142.300 116.400 142.400 116.500 142.400 116.400 V 113.500 C 142.400 113.445 142.355 113.400 142.300 113.400 H 136.300 C 136.245 113.400 136.200 113.445 136.200 113.500 V 116.400 C 136.200 116.500 136.300 116.400 136.200 116.400 H 130.400 C 130.300 116.400 130.400 116.500 130.400 116.400 V 113.500 C 130.400 113.445 130.355 113.400 130.300 113.400 H 121.800 C 121.745 113.400 121.700 113.445 121.700 113.500 V 116.500 V 240.500 V 243.500 C 121.700 243.555 121.745 243.600 121.800 243.600 Z" stroke="rgb(0,0,0)" stroke-width="0.20" />
  <text dominant-baseline="hanging" font-size="4px" style="font-family: sans-serif ; font-weight: normal; font-style: normal; fill: rgb(255,0,0)" text-anchor="middle" transform="matrix( 1.000 0.000 0.000 1.000 176.800 176.600 )">out box top</text>
</g>
<g id="p-8" style="fill:none;stroke-linecap:round;stroke-linejoin:round;">
  <path d="M 121.800 108.900 H 130.200 C 130.300 108.900 130.200 108.800 130.200 108.900 V 111.800 C 130.200 111.855 130.245 111.900 130.300 111.900 H 136.300 C 136.355 111.900 136.400 111.855 136.400 111.800 V 108.900 C 136.400 108.800 136.300 108.900 136.400 108.900 H 142.200 C 142.300 108.900 142.200 108.800 142.200 108.900 V 111.800 C 142.200 111.855 142.245 111.900 142.300 111.900 H 148.300 C 148.355 111.900 148.400 111.855 148.400 111.800 V 108.900 C 148.400 108.800 148.300 108.900 148.400 108.900 H 154.200 C 154.300 108.900 154.200 108.800 154.200 108.900 V 111.800 C 154.200 111.855 154.245 111.900 154.300 111.900 H 160.300 C 160.355 111.900 160.400 111.855 160.400 111.800 V 108.900 C 160.400 108.800 160.300 108.900 160.400 108.900 H 166.200 C 166.300 108.900 166.200 108.800 166.200 108.900 V 111.800 C 166.200 111.855 166.245 111.900 166.300 111.900 H 172.300 C 172.355 111.900 172.400 111.855 172.400 111.800 V 108.900 C 172.400 108.800 172.300 108.900 172.400 108.900 H 178.200 C 178.300 108.900 178.200 108.800 178.200 108.900 V 111.800 C 178.200 111.855 178.245 111.900 178.300 111.900 H 184.300 C 184.355 111.900 184.400 111.855 184.400 111.800 V 108.900 C 184.400 108.800 184.300 108.900 184.400 108.900 H 190.200 C 190.300 108.900 190.200 108.800 190.200 108.900 V 111.800 C 190.200 111.855 190.245 111.900 190.300 111.900 H 196.300 C 196.355 111.900 196.400 111.855 196.400 111.800 V 108.900 C 196.400 108.800 196.300 108.900 196.400 108.900 H 202.200 C 202.300 108.900 202.200 108.800 202.200 108.900 V 111.800 C 202.200 111.855 202.245 111.900 202.300 111.900 H 208.300 C 208.355 111.900 208.400 111.855 208.400 111.800 V 108.900 C 208.400 108.800 208.300 108.900 208.400 108.900 H 214.200 C 214.300 108.900 214.200 108.800 214.200 108.900 V 111.800 C 214.200 111.855 214.245 111.900 214.300 111.900 H 220.300 C 220.355 111.900 220.400 111.855 220.400 111.800 V 108.900 C 220.400 108.800 220.300 108.900 220.400 108.900 H 228.800 C 228.855 108.900 228.900 108.855 228.900 108.800 V 101.900 C 228.900 101.800 228.800 101.900 228.900 101.900 H 231.800 C 231.855 101.900 231.900 101.855 231.900 101.800 V 95.800 C 231.900 95.745 231.855 95.700 231.800 95.700 H 228.900 C 228.800 95.700 228.900 95.800 228.900 95.700 V 89.900 C 228.900 89.800 228.800 89.900 228.900 89.900 H 231.800 C 231.855 89.900 231.900 89.855 231.900 89.800 V 83.800 C 231.900 83.745 231.855 83.700 231.800 83.700 H 228.900 C 228.800 83.700 228.900 83.800 228.900 83.700 V 77.900 C 228.900 77.800 228.800 77.900 228.900 77.900 H 231.800 C 231.855 77.900 231.900 77.855 231.900 77.800 V 71.800 C 231.900 71.745 231.855 71.700 231.800 71.700 H 228.900 C 228.800 71.700 228.900 71.800 228.900 71.700 V 64.800 C 228.900 64.745 228.855 64.700 228.800 64.700 H 220.400 C 220.300 64.700 220.400 64.800 220.400 64.700 V 61.800 C 220.400 61.745 220.355 61.700 220.300 61.700 H 214.300 C 214.245 61.700 214.200 61.745 214.200 61.800 V 64.700 C 214.200 64.800 214.300 64.700 214.200 64.700 H 208.400 C 208.300 64.700 208.400 64.800 208.400 64.700 V 61.800 C 208.400 61.745 208.355 61.700 208.300 61.700 H 202.300 C 202.245 61.700 202.200 61.745 202.200 61.800 V 64.700 C 202.200 64.800 202.300 64.700 202.200 64.700 H 196.400 C 196.300 64.700 196.400 64.800 196.400 64.700 V 61.800 C 196.400 61.745 196.355 61.700 196.300 61.700 H 190.300 C 190.245 61.700 190.200 61.745 190.200 61.800 V 64.700 C 190.200 64.800 190.300 64.700 190.200 64.700 H 184.400 C 184.300 64.700 184.400 64.800 184.400 64.700 V 61.800 C 184.400 61.745 184.355 61.700 184.300 61.700 H 178.300 C 178.245 61.700 178.200 61.745 178.200 61.800 V 64.700 C 178.200 64.800 178.300 64.700 178.200 64.700 H 172.400 C 172.300 64.700 172.400 64.800 172.400 64.700 V 61.800 C 172.400 61.745 172.355 61.700 172.300 61.700 H 166.300 C 166.245 61.700 166.200 61.745 166.200 61.800 V 64.700 C 166.200 64.800 166.300 64.700 166.200 64.700 H 160.400 C 160.300 64.700 160.400 64.800 160.400 64.700 V 61.800 C 160.400 61.745 160.355 61.700 160.300 61.700 H 154.300 C 154.245 61.700 154.200 61.745 154.200 61.800 V 64.700 C 154.200 64.800 154.300 64.700 154.200 64.700 H 148.400 C 148.300 64.700 148.400 64.800 148.400 64.700 V 61.800 C 148.400 61.745 148.355 61.700 148.300 61.700 H 142.300 C 142.245 61.700 142.200 61.745 142.200 61.800 V 64.700 C 142.200 64.800 142.300 64.700 142.200 64.700 H 136.400 C 136.300 64.700 136.400 64.800 136.400 64.700 V 61.800 C 136.400 61.745 136.355 61.700 136.300 61.700 H 130.300 C 130.245 61.700 130.200 61.745 130.200 61.800 V 64.700 C 130.200 64.800 130.300 64.700 130.200 64.700 H 121.800 C 121.745 64.700 121.700 64.745 121.700 64.800 V 108.800 C 121.700 108.855 121.745 108.900 121.800 108.900 Z" stroke="rgb(0,0,0)" stroke-width="0.20" />
  <text dominant-baseline="hanging" font-size="4px" style="font-family: sans-serif ; font-weight: normal; font-style: normal; fill: rgb(255,0,0)" text-anchor="middle" transform="matrix( 1.000 0.000 0.000 1.000 176.800 84.900 )">out box wall</text>
</g>
<g id="p-9" style="fill:none;stroke-linecap:round;stroke-linejoin:round;">
  <path d="M 10.100 108.900 H 18.500 C 18.600 108.900 18.500 108.800 18.500 108.900 V 111.800 C 18.500 111.855 18.545 111.900 18.600 111.900 H 24.600 C 24.655 111.900 24.700 111.855 24.700 111.800 V 108.900 C 24.700 108.800 24.600 108.900 24.700 108.900 H 30.500 C 30.600 108.900 30.500 108.800 30.500 108.900 V 111.800 C 30.500 111.855 30.545 111.900 30.600 111.900 H 36.600 C 36.655 111.900 36.700 111.855 36.700 111.800 V 108.900 C 36.700 108.800 36.600 108.900 36.700 108.900 H 42.500 C 42.600 108.900 42.500 108.800 42.500 108.900 V 111.800 C 42.500 111.855 42.545 111.900 42.600 111.900 H 48.600 C 48.655 111.900 48.700 111.855 48.700 111.800 V 108.900 C 48.700 108.800 48.600 108.900 48.700 108.900 H 54.500 C 54.600 108.900 54.500 108.800 54.500 108.900 V 111.800 C 54.500 111.855 54.545 111.900 54.600 111.900 H 60.600 C 60.655 111.900 60.700 111.855 60.700 111.800 V 108.900 C 60.700 108.800 60.600 108.900 60.700 108.900 H 66.500 C 66.600 108.900 66.500 108.800 66.500 108.900 V 111.800 C 66.500 111.855 66.545 111.900 66.600 111.900 H 72.600 C 72.655 111.900 72.700 111.855 72.700 111.800 V 108.900 C 72.700 108.800 72.600 108.900 72.700 108.900 H 78.500 C 78.600 108.900 78.500 108.800 78.500 108.900 V 111.800 C 78.500 111.855 78.545 111.900 78.600 111.900 H 84.600 C 84.655 111.900 84.700 111.855 84.700 111.800 V 108.900 C 84.700 108.800 84.600 108.900 84.700 108.900 H 90.500 C 90.600 108.900 90.500 108.800 90.500 108.900 V 111.800 C 90.500 111.855 90.545 111.900 90.600 111.900 H 96.600 C 96.655 111.900 96.700 111.855 96.700 111.800 V 108.900 C 96.700 108.800 96.600 108.900 96.700 108.900 H 102.500 C 102.600 108.900 102.500 108.800 102.500 108.900 V 111.800 C 102.500 111.855 102.545 111.900 102.600 111.900 H 108.600 C 108.655 111.900 108.700 111.855 108.700 111.800 V 108.900 C 108.700 108.800 108.600 108.900 108.700 108.900 H 117.100 C 117.155 108.900 117.200 108.855 117.200 108.800 V 101.900 C 117.200 101.800 117.100 101.900 117.200 101.900 H 120.100 C 120.155 101.900 120.200 101.855 120.200 101.800 V 95.800 C 120.200 95.745 120.155 95.700 120.100 95.700 H 117.200 C 117.100 95.700 117.200 95.800 117.200 95.700 V 89.900 C 117.200 89.800 117.100 89.900 117.200 89.900 H 120.100 C 120.155 89.900 120.200 89.855 120.200 89.800 V 83.800 C 120.200 83.745 120.155 83.700 120.100 83.700 H 117.200 C 117.100 83.700 117.200 83.800 117.200 83.700 V 77.900 C 117.200 77.800 117.100 77.900 117.200 77.900 H 120.100 C 120.155 77.900 120.200 77.855 120.200 77.800 V 71.800 C 120.200 71.745 120.155 71.700 120.100 71.700 H 117.200 C 117.100 71.700 117.200 71.800 117.200 71.700 V 64.800 C 117.200 64.745 117.155 64.700 117.100 64.700 H 108.700 C 108.600 64.700 108.700 64.800 108.700 64.700 V 61.800 C 108.700 61.745 108.655 61.700 108.600 61.700 H 102.600 C 102.545 61.700 102.500 61.745 102.500 61.800 V 64.700 C 102.500 64.800 102.600 64.700 102.500 64.700 H 96.700 C 96.600 64.700 96.700 64.800 96.700 64.700 V 61.800 C 96.700 61.745 96.655 61.700 96.600 61.700 H 90.600 C 90.545 61.700 90.500 61.745 90.500 61.800 V 64.700 C 90.500 64.800 90.600 64.700 90.500 64.700 H 84.700 C 84.600 64.700 84.700 64.800 84.700 64.700 V 61.800 C 84.700 61.745 84.655 61.700 84.600 61.700 H 78.600 C 78.545 61.700 78.500 61.745 78.500 61.800 V 64.700 C 78.500 64.800 78.600 64.700 78.500 64.700 H 72.700 C 72.600 64.700 72.700 64.800 72.700 64.700 V 61.800 C 72.700 61.745 72.655 61.700 72.600 61.700 H 66.600 C 66.545 61.700 66.500 61.745 66.500 61.800 V 64.700 C 66.500 64.800 66.600 64.700 66.500 64.700 H 60.700 C 60.600 64.700 60.700 64.800 60.700 64.700 V 61.800 C 60.700 61.745 60.655 61.700 60.600 61.700 H 54.600 C 54.545 61.700 54.500 61.745 54.500 61.800 V 64.700 C 54.500 64.800 54.600 64.700 54.500 64.700 H 48.700 C 48.600 64.700 48.700 64.800 48.700 64.700 V 61.800 C 48.700 61.745 48.655 61.700 48.600 61.700 H 42.600 C 42.545 61.700 42.500 61.745 42.500 61.800 V 64.700 C 42.500 64.800 42.600 64.700 42.500 64.700 H 36.700 C 36.600 64.700 36.700 64.800 36.700 64.700 V 61.800 C 36.700 61.745 36.655 61.700 36.600 61.700 H 30.600 C 30.545 61.700 30.500 61.745 30.500 61.800 V 64.700 C 30.500 64.800 30.600 64.700 30.500 64.700 H 24.700 C 24.600 64.700 24.700 64.800 24.700 64.700 V 61.800 C 24.700 61.745 24.655 61.700 24.600 61.700 H 18.600 C 18.545 61.700 18.500 61.745 18.500 61.800 V 64.700 C 18.500 64.800 18.600 64.700 18.500 64.700 H 10.100 C 10.045 64.700 10.000 64.745 10.000 64.800 V 108.800 C 10.000 108.855 10.045 108.900 10.100 108.900 Z" stroke="rgb(0,0,0)" stroke-width="0.20" />
  <text dominant-baseline="hanging" font-size="4px" style="font-family: sans-serif ; font-weight: normal; font-style: normal; fill: rgb(255,0,0)" text-anchor="middle" transform="matrix( 1.000 0.000 0.000 1.000 65.100 84.900 )">out box wall</text>
</g>
<g id="p-10" style="fill:none;stroke-linecap:round;stroke-linejoin:round;">
  <path d="M 13.100 57.200 H 24.000 C 24.100 57.200 24.000 57.100 24.000 57.200 V 60.100 C 24.000 60.155 24.045 60.200 24.100 60.200 H 30.100 C 30.155 60.200 30.200 60.155 30.200 60.100 V 57.200 C 30.200 57.100 30.100 57.200 30.200 57.200 H 36.000 C 36.100 57.200 36.000 57.100 36.000 57.200 V 60.100 C 36.000 60.155 36.045 60.200 36.100 60.200 H 42.100 C 42.155 60.200 42.200 60.155 42.200 60.100 V 57.200 C 42.200 57.100 42.100 57.200 42.200 57.200 H 48.000 C 48.100 57.200 48.000 57.100 48.000 57.200 V 60.100 C 48.000 60.155 48.045 60.200 48.100 60.200 H 54.100 C 54.155 60.200 54.200 60.155 54.200 60.100 V 57.200 C 54.200 57.100 54.100 57.200 54.200 57.200 H 60.000 C 60.100 57.200 60.000 57.100 60.000 57.200 V 60.100 C 60.000 60.155 60.045 60.200 60.100 60.200 H 66.100 C 66.155 60.200 66.200 60.155 66.200 60.100 V 57.200 C 66.200 57.100 66.100 57.200 66.200 57.200 H 72.000 C 72.100 57.200 72.000 57.100 72.000 57.200 V 60.100 C 72.000 60.155 72.045 60.200 72.100 60.200 H 78.100 C 78.155 60.200 78.200 60.155 78.200 60.100 V 57.200 C 78.200 57.100 78.100 57.200 78.200 57.200 H 84.000 C 84.100 57.200 84.000 57.100 84.000 57.200 V 60.100 C 84.000 60.155 84.045 60.200 84.100 60.200 H 90.100 C 90.155 60.200 90.200 60.155 90.200 60.100 V 57.200 C 90.200 57.100 90.100 57.200 90.200 57.200 H 96.000 C 96.100 57.200 96.000 57.100 96.000 57.200 V 60.100 C 96.000 60.155 96.045 60.200 96.100 60.200 H 102.100 C 102.155 60.200 102.200 60.155 102.200 60.100 V 57.200 C 102.200 57.100 102.100 57.200 102.200 57.200 H 108.000 C 108.100 57.200 108.000 57.100 108.000 57.200 V 60.100 C 108.000 60.155 108.045 60.200 108.100 60.200 H 114.100 C 114.155 60.200 114.200 60.155 114.200 60.100 V 57.200 C 114.200 57.100 114.100 57.200 114.200 57.200 H 120.000 C 120.100 57.200 120.000 57.100 120.000 57.200 V 60.100 C 120.000 60.155 120.045 60.200 120.100 60.200 H 126.100 C 126.155 60.200 126.200 60.155 126.200 60.100 V 57.200 C 126.200 57.100 126.100 57.200 126.200 57.200 H 137.100 H 140.100 C 140.155 57.200 140.200 57.155 140.200 57.100 V 50.100 C 140.200 50.045 140.155 50.000 140.100 50.000 H 137.200 C 137.100 50.000 137.200 50.100 137.200 50.000 V 44.200 C 137.200 44.100 137.100 44.200 137.200 44.200 H 140.100 C 140.155 44.200 140.200 44.155 140.200 44.100 V 38.100 C 140.200 38.045 140.155 38.000 140.100 38.000 H 137.200 C 137.100 38.000 137.200 38.100 137.200 38.000 V 32.200 C 137.200 32.100 137.100 32.200 137.200 32.200 H 140.100 C 140.155 32.200 140.200 32.155 140.200 32.100 V 26.100 C 140.200 26.045 140.155 26.000 140.100 26.000 H 137.200 C 137.100 26.000 137.200 26.100 137.200 26.000 V 20.200 C 137.200 20.100 137.100 20.200 137.200 20.200 H 140.100 C 140.155 20.200 140.200 20.155 140.200 20.100 V 13.100 C 140.200 13.045 140.155 13.000 140.100 13.000 H 137.100 H 126.200 C 126.100 13.000 126.200 13.100 126.200 13.000 V 10.100 C 126.200 10.045 126.155 10.000 126.100 10.000 H 120.100 C 120.045 10.000 120.000 10.045 120.000 10.100 V 13.000 C 120.000 13.100 120.100 13.000 120.000 13.000 H 114.200 C 114.100 13.000 114.200 13.100 114.200 13.000 V 10.100 C 114.200 10.045 114.155 10.000 114.100 10.000 H 108.100 C 108.045 10.000 108.000 10.045 108.000 10.100 V 13.000 C 108.000 13.100 108.100 13.000 108.000 13.000 H 102.200 C 102.100 13.000 102.200 13.100 102.200 13.000 V 10.100 C 102.200 10.045 102.155 10.000 102.100 10.000 H 96.100 C 96.045 10.000 96.000 10.045 96.000 10.100 V 13.000 C 96.000 13.100 96.100 13.000 96.000 13.000 H 90.200 C 90.100 13.000 90.200 13.100 90.200 13.000 V 10.100 C 90.200 10.045 90.155 10.000 90.100 10.000 H 84.100 C 84.045 10.000 84.000 10.045 84.000 10.100 V 13.000 C 84.000 13.100 84.100 13.000 84.000 13.000 H 78.200 C 78.100 13.000 78.200 13.100 78.200 13.000 V 10.100 C 78.200 10.045 78.155 10.000 78.100 10.000 H 72.100 C 72.045 10.000 72.000 10.045 72.000 10.100 V 13.000 C 72.000 13.100 72.100 13.000 72.000 13.000 H 66.200 C 66.100 13.000 66.200 13.100 66.200 13.000 V 10.100 C 66.200 10.045 66.155 10.000 66.100 10.000 H 60.100 C 60.045 10.000 60.000 10.045 60.000 10.100 V 13.000 C 60.000 13.100 60.100 13.000 60.000 13.000 H 54.200 C 54.100 13.000 54.200 13.100 54.200 13.000 V 10.100 C 54.200 10.045 54.155 10.000 54.100 10.000 H 48.100 C 48.045 10.000 48.000 10.045 48.000 10.100 V 13.000 C 48.000 13.100 48.100 13.000 48.000 13.000 H 42.200 C 42.100 13.000 42.200 13.100 42.200 13.000 V 10.100 C 42.200 10.045 42.155 10.000 42.100 10.000 H 36.100 C 36.045 10.000 36.000 10.045 36.000 10.100 V 13.000 C 36.000 13.100 36.100 13.000 36.000 13.000 H 30.200 C 30.100 13.000 30.200 13.100 30.200 13.000 V 10.100 C 30.200 10.045 30.155 10.000 30.100 10.000 H 24.100 C 24.045 10.000 24.000 10.045 24.000 10.100 V 13.000 C 24.000 13.100 24.100 13.000 24.000 13.000 H 13.100 H 10.100 C 10.045 13.000 10.000 13.045 10.000 13.100 V 20.100 C 10.000 20.155 10.045 20.200 10.100 20.200 H 13.000 C 13.100 20.200 13.000 20.100 13.000 20.200 V 26.000 C 13.000 26.100 13.100 26.000 13.000 26.000 H 10.100 C 10.045 26.000 10.000 26.045 10.000 26.100 V 32.100 C 10.000 32.155 10.045 32.200 10.100 32.200 H 13.000 C 13.100 32.200 13.000 32.100 13.000 32.200 V 38.000 C 13.000 38.100 13.100 38.000 13.000 38.000 H 10.100 C 10.045 38.000 10.000 38.045 10.000 38.100 V 44.100 C 10.000 44.155 10.045 44.200 10.100 44.200 H 13.000 C 13.100 44.200 13.000 44.100 13.000 44.200 V 50.000 C 13.000 50.100 13.100 50.000 13.000 50.000 H 10.100 C 10.045 50.000 10.000 50.045 10.000 50.100 V 57.100 C 10.000 57.155 10.045 57.200 10.100 57.200 H 13.100 Z" stroke="rgb(0,0,0)" stroke-width="0.20" />
  <text dominant-baseline="hanging" font-size="4px" style="font-family: sans-serif ; font-weight: normal; font-style: normal; fill: rgb(255,0,0)" text-anchor="middle" transform="matrix( 1.000 0.000 0.000 1.000 75.100 33.200 )">out box wall</text>
</g>
</svg>